<?xml version="1.0" encoding="utf-8" standalone="no"?>
<!DOCTYPE svg PUBLIC "-//W3C//DTD SVG 1.1//EN"
  "http://www.w3.org/Graphics/SVG/1.1/DTD/svg11.dtd">
<svg xmlns:xlink="http://www.w3.org/1999/xlink" width="360pt" height="432pt" viewBox="0 0 360 432" xmlns="http://www.w3.org/2000/svg" version="1.1">
 <metadata>
  <rdf:RDF xmlns:dc="http://purl.org/dc/elements/1.1/" xmlns:cc="http://creativecommons.org/ns#" xmlns:rdf="http://www.w3.org/1999/02/22-rdf-syntax-ns#">
   <cc:Work>
    <dc:type rdf:resource="http://purl.org/dc/dcmitype/StillImage"/>
    <dc:date>2025-05-22T15:27:37.936711</dc:date>
    <dc:format>image/svg+xml</dc:format>
    <dc:creator>
     <cc:Agent>
      <dc:title>Matplotlib v3.10.3, https://matplotlib.org/</dc:title>
     </cc:Agent>
    </dc:creator>
   </cc:Work>
  </rdf:RDF>
 </metadata>
 <defs>
  <style type="text/css">*{stroke-linejoin: round; stroke-linecap: butt}</style>
 </defs>
 <g id="figure_1">
  <g id="patch_1">
   <path d="M 0 432 
L 360 432 
L 360 0 
L 0 0 
z
" style="fill: #ffffff"/>
  </g>
  <g id="axes_1">
   <g id="patch_2">
    <path d="M 74.63 253.6 
L 342.72 253.6 
L 342.72 17.28 
L 74.63 17.28 
z
" style="fill: #ffffff"/>
   </g>
   <g id="patch_3">
    <path d="M 79.9918 253.6 
L 122.8862 253.6 
L 122.8862 80.422764 
L 79.9918 80.422764 
z
" clip-path="url(#pf778b7bcea)" style="fill: #857aab; stroke: #000000; stroke-width: 1.5; stroke-linejoin: miter"/>
   </g>
   <g id="patch_4">
    <path d="M 133.6098 253.6 
L 176.5042 253.6 
L 176.5042 122.875495 
L 133.6098 122.875495 
z
" clip-path="url(#pf778b7bcea)" style="fill: #857aab; stroke: #000000; stroke-width: 1.5; stroke-linejoin: miter"/>
   </g>
   <g id="patch_5">
    <path d="M 187.2278 253.6 
L 230.1222 253.6 
L 230.1222 138.240248 
L 187.2278 138.240248 
z
" clip-path="url(#pf778b7bcea)" style="fill: #857aab; stroke: #000000; stroke-width: 1.5; stroke-linejoin: miter"/>
   </g>
   <g id="patch_6">
    <path d="M 240.8458 253.6 
L 283.7402 253.6 
L 283.7402 178.705833 
L 240.8458 178.705833 
z
" clip-path="url(#pf778b7bcea)" style="fill: #857aab; stroke: #000000; stroke-width: 1.5; stroke-linejoin: miter"/>
   </g>
   <g id="patch_7">
    <path d="M 294.4638 253.6 
L 337.3582 253.6 
L 337.3582 190.253024 
L 294.4638 190.253024 
z
" clip-path="url(#pf778b7bcea)" style="fill: #857aab; stroke: #000000; stroke-width: 1.5; stroke-linejoin: miter"/>
   </g>
   <g id="matplotlib.axis_1">
    <g id="xtick_1">
     <g id="line2d_1">
      <defs>
       <path id="m482edde48c" d="M 0 0 
L 0 3.5 
" style="stroke: #000000; stroke-width: 1.5"/>
      </defs>
      <g>
       <use xlink:href="#m482edde48c" x="101.439" y="253.6" style="stroke: #000000; stroke-width: 1.5"/>
      </g>
     </g>
     <g id="text_1">
      <!-- 111111000000000 -->
      <g transform="translate(105.814 395.4875) rotate(-90) scale(0.16 -0.16)">
       <defs>
        <path id="Roboto-Regular-31" d="M 2278 4575 
L 2278 0 
L 1700 0 
L 1700 3853 
L 534 3428 
L 534 3950 
L 2188 4575 
L 2278 4575 
z
" transform="scale(0.015625)"/>
        <path id="Roboto-Regular-30" d="M 3234 2638 
L 3234 1944 
Q 3234 1384 3134 1000 
Q 3034 616 2846 381 
Q 2659 147 2395 42 
Q 2131 -63 1800 -63 
Q 1538 -63 1316 3 
Q 1094 69 917 214 
Q 741 359 616 593 
Q 491 828 425 1162 
Q 359 1497 359 1944 
L 359 2638 
Q 359 3197 461 3575 
Q 563 3953 750 4183 
Q 938 4413 1202 4513 
Q 1466 4613 1794 4613 
Q 2059 4613 2282 4548 
Q 2506 4484 2681 4345 
Q 2856 4206 2979 3976 
Q 3103 3747 3168 3415 
Q 3234 3084 3234 2638 
z
M 2653 1850 
L 2653 2734 
Q 2653 3041 2617 3273 
Q 2581 3506 2512 3672 
Q 2444 3838 2339 3941 
Q 2234 4044 2098 4092 
Q 1963 4141 1794 4141 
Q 1588 4141 1428 4064 
Q 1269 3988 1161 3822 
Q 1053 3656 997 3387 
Q 941 3119 941 2734 
L 941 1850 
Q 941 1544 977 1309 
Q 1013 1075 1084 904 
Q 1156 734 1259 625 
Q 1363 516 1498 464 
Q 1634 413 1800 413 
Q 2013 413 2172 494 
Q 2331 575 2439 748 
Q 2547 922 2600 1195 
Q 2653 1469 2653 1850 
z
" transform="scale(0.015625)"/>
       </defs>
       <use xlink:href="#Roboto-Regular-31"/>
       <use xlink:href="#Roboto-Regular-31" transform="translate(56.201172 0)"/>
       <use xlink:href="#Roboto-Regular-31" transform="translate(112.402344 0)"/>
       <use xlink:href="#Roboto-Regular-31" transform="translate(168.603516 0)"/>
       <use xlink:href="#Roboto-Regular-31" transform="translate(224.804688 0)"/>
       <use xlink:href="#Roboto-Regular-31" transform="translate(281.005859 0)"/>
       <use xlink:href="#Roboto-Regular-30" transform="translate(337.207031 0)"/>
       <use xlink:href="#Roboto-Regular-30" transform="translate(393.408203 0)"/>
       <use xlink:href="#Roboto-Regular-30" transform="translate(449.609375 0)"/>
       <use xlink:href="#Roboto-Regular-30" transform="translate(505.810547 0)"/>
       <use xlink:href="#Roboto-Regular-30" transform="translate(562.011719 0)"/>
       <use xlink:href="#Roboto-Regular-30" transform="translate(618.212891 0)"/>
       <use xlink:href="#Roboto-Regular-30" transform="translate(674.414062 0)"/>
       <use xlink:href="#Roboto-Regular-30" transform="translate(730.615234 0)"/>
       <use xlink:href="#Roboto-Regular-30" transform="translate(786.816406 0)"/>
      </g>
     </g>
    </g>
    <g id="xtick_2">
     <g id="line2d_2">
      <g>
       <use xlink:href="#m482edde48c" x="155.057" y="253.6" style="stroke: #000000; stroke-width: 1.5"/>
      </g>
     </g>
     <g id="text_2">
      <!-- 000000111110000 -->
      <g transform="translate(159.432 395.4875) rotate(-90) scale(0.16 -0.16)">
       <use xlink:href="#Roboto-Regular-30"/>
       <use xlink:href="#Roboto-Regular-30" transform="translate(56.201172 0)"/>
       <use xlink:href="#Roboto-Regular-30" transform="translate(112.402344 0)"/>
       <use xlink:href="#Roboto-Regular-30" transform="translate(168.603516 0)"/>
       <use xlink:href="#Roboto-Regular-30" transform="translate(224.804688 0)"/>
       <use xlink:href="#Roboto-Regular-30" transform="translate(281.005859 0)"/>
       <use xlink:href="#Roboto-Regular-31" transform="translate(337.207031 0)"/>
       <use xlink:href="#Roboto-Regular-31" transform="translate(393.408203 0)"/>
       <use xlink:href="#Roboto-Regular-31" transform="translate(449.609375 0)"/>
       <use xlink:href="#Roboto-Regular-31" transform="translate(505.810547 0)"/>
       <use xlink:href="#Roboto-Regular-31" transform="translate(562.011719 0)"/>
       <use xlink:href="#Roboto-Regular-30" transform="translate(618.212891 0)"/>
       <use xlink:href="#Roboto-Regular-30" transform="translate(674.414062 0)"/>
       <use xlink:href="#Roboto-Regular-30" transform="translate(730.615234 0)"/>
       <use xlink:href="#Roboto-Regular-30" transform="translate(786.816406 0)"/>
      </g>
     </g>
    </g>
    <g id="xtick_3">
     <g id="line2d_3">
      <g>
       <use xlink:href="#m482edde48c" x="208.675" y="253.6" style="stroke: #000000; stroke-width: 1.5"/>
      </g>
     </g>
     <g id="text_3">
      <!-- 000000111110100 -->
      <g transform="translate(213.05 395.4875) rotate(-90) scale(0.16 -0.16)">
       <use xlink:href="#Roboto-Regular-30"/>
       <use xlink:href="#Roboto-Regular-30" transform="translate(56.201172 0)"/>
       <use xlink:href="#Roboto-Regular-30" transform="translate(112.402344 0)"/>
       <use xlink:href="#Roboto-Regular-30" transform="translate(168.603516 0)"/>
       <use xlink:href="#Roboto-Regular-30" transform="translate(224.804688 0)"/>
       <use xlink:href="#Roboto-Regular-30" transform="translate(281.005859 0)"/>
       <use xlink:href="#Roboto-Regular-31" transform="translate(337.207031 0)"/>
       <use xlink:href="#Roboto-Regular-31" transform="translate(393.408203 0)"/>
       <use xlink:href="#Roboto-Regular-31" transform="translate(449.609375 0)"/>
       <use xlink:href="#Roboto-Regular-31" transform="translate(505.810547 0)"/>
       <use xlink:href="#Roboto-Regular-31" transform="translate(562.011719 0)"/>
       <use xlink:href="#Roboto-Regular-30" transform="translate(618.212891 0)"/>
       <use xlink:href="#Roboto-Regular-31" transform="translate(674.414062 0)"/>
       <use xlink:href="#Roboto-Regular-30" transform="translate(730.615234 0)"/>
       <use xlink:href="#Roboto-Regular-30" transform="translate(786.816406 0)"/>
      </g>
     </g>
    </g>
    <g id="xtick_4">
     <g id="line2d_4">
      <g>
       <use xlink:href="#m482edde48c" x="262.293" y="253.6" style="stroke: #000000; stroke-width: 1.5"/>
      </g>
     </g>
     <g id="text_4">
      <!-- 000000111110010 -->
      <g transform="translate(266.668 395.4875) rotate(-90) scale(0.16 -0.16)">
       <use xlink:href="#Roboto-Regular-30"/>
       <use xlink:href="#Roboto-Regular-30" transform="translate(56.201172 0)"/>
       <use xlink:href="#Roboto-Regular-30" transform="translate(112.402344 0)"/>
       <use xlink:href="#Roboto-Regular-30" transform="translate(168.603516 0)"/>
       <use xlink:href="#Roboto-Regular-30" transform="translate(224.804688 0)"/>
       <use xlink:href="#Roboto-Regular-30" transform="translate(281.005859 0)"/>
       <use xlink:href="#Roboto-Regular-31" transform="translate(337.207031 0)"/>
       <use xlink:href="#Roboto-Regular-31" transform="translate(393.408203 0)"/>
       <use xlink:href="#Roboto-Regular-31" transform="translate(449.609375 0)"/>
       <use xlink:href="#Roboto-Regular-31" transform="translate(505.810547 0)"/>
       <use xlink:href="#Roboto-Regular-31" transform="translate(562.011719 0)"/>
       <use xlink:href="#Roboto-Regular-30" transform="translate(618.212891 0)"/>
       <use xlink:href="#Roboto-Regular-30" transform="translate(674.414062 0)"/>
       <use xlink:href="#Roboto-Regular-31" transform="translate(730.615234 0)"/>
       <use xlink:href="#Roboto-Regular-30" transform="translate(786.816406 0)"/>
      </g>
     </g>
    </g>
    <g id="xtick_5">
     <g id="line2d_5">
      <g>
       <use xlink:href="#m482edde48c" x="315.911" y="253.6" style="stroke: #000000; stroke-width: 1.5"/>
      </g>
     </g>
     <g id="text_5">
      <!-- 000000111110110 -->
      <g transform="translate(320.286 395.4875) rotate(-90) scale(0.16 -0.16)">
       <use xlink:href="#Roboto-Regular-30"/>
       <use xlink:href="#Roboto-Regular-30" transform="translate(56.201172 0)"/>
       <use xlink:href="#Roboto-Regular-30" transform="translate(112.402344 0)"/>
       <use xlink:href="#Roboto-Regular-30" transform="translate(168.603516 0)"/>
       <use xlink:href="#Roboto-Regular-30" transform="translate(224.804688 0)"/>
       <use xlink:href="#Roboto-Regular-30" transform="translate(281.005859 0)"/>
       <use xlink:href="#Roboto-Regular-31" transform="translate(337.207031 0)"/>
       <use xlink:href="#Roboto-Regular-31" transform="translate(393.408203 0)"/>
       <use xlink:href="#Roboto-Regular-31" transform="translate(449.609375 0)"/>
       <use xlink:href="#Roboto-Regular-31" transform="translate(505.810547 0)"/>
       <use xlink:href="#Roboto-Regular-31" transform="translate(562.011719 0)"/>
       <use xlink:href="#Roboto-Regular-30" transform="translate(618.212891 0)"/>
       <use xlink:href="#Roboto-Regular-31" transform="translate(674.414062 0)"/>
       <use xlink:href="#Roboto-Regular-31" transform="translate(730.615234 0)"/>
       <use xlink:href="#Roboto-Regular-30" transform="translate(786.816406 0)"/>
      </g>
     </g>
    </g>
    <g id="text_6">
     <!-- State -->
     <g transform="translate(190.09625 411.4875) scale(0.16 -0.16)">
      <defs>
       <path id="Roboto-Regular-53" d="M 2953 1150 
Q 2953 1309 2904 1432 
Q 2856 1556 2736 1656 
Q 2616 1756 2405 1847 
Q 2194 1938 1872 2031 
Q 1534 2131 1262 2254 
Q 991 2378 797 2537 
Q 603 2697 500 2903 
Q 397 3109 397 3375 
Q 397 3641 506 3866 
Q 616 4091 820 4258 
Q 1025 4425 1309 4519 
Q 1594 4613 1944 4613 
Q 2456 4613 2814 4417 
Q 3172 4222 3359 3908 
Q 3547 3594 3547 3238 
L 2947 3238 
Q 2947 3494 2837 3692 
Q 2728 3891 2506 4005 
Q 2284 4119 1944 4119 
Q 1622 4119 1412 4022 
Q 1203 3925 1101 3759 
Q 1000 3594 1000 3381 
Q 1000 3238 1061 3120 
Q 1122 3003 1251 2903 
Q 1381 2803 1582 2718 
Q 1784 2634 2066 2556 
Q 2453 2447 2734 2312 
Q 3016 2178 3198 2011 
Q 3381 1844 3470 1633 
Q 3559 1422 3559 1156 
Q 3559 878 3446 653 
Q 3334 428 3125 268 
Q 2916 109 2623 23 
Q 2331 -63 1972 -63 
Q 1656 -63 1351 25 
Q 1047 113 798 288 
Q 550 463 401 720 
Q 253 978 253 1319 
L 853 1319 
Q 853 1084 943 917 
Q 1034 750 1192 640 
Q 1350 531 1551 479 
Q 1753 428 1972 428 
Q 2288 428 2506 515 
Q 2725 603 2839 765 
Q 2953 928 2953 1150 
z
" transform="scale(0.015625)"/>
       <path id="Roboto-Regular-74" d="M 1856 3381 
L 1856 2938 
L 28 2938 
L 28 3381 
L 1856 3381 
z
M 647 4203 
L 1225 4203 
L 1225 838 
Q 1225 666 1278 578 
Q 1331 491 1415 462 
Q 1500 434 1597 434 
Q 1669 434 1748 448 
Q 1828 463 1869 472 
L 1872 0 
Q 1803 -22 1692 -42 
Q 1581 -63 1425 -63 
Q 1213 -63 1034 21 
Q 856 106 751 304 
Q 647 503 647 841 
L 647 4203 
z
" transform="scale(0.015625)"/>
       <path id="Roboto-Regular-61" d="M 2434 578 
L 2434 2319 
Q 2434 2519 2354 2667 
Q 2275 2816 2115 2897 
Q 1956 2978 1722 2978 
Q 1503 2978 1339 2903 
Q 1175 2828 1083 2706 
Q 991 2584 991 2444 
L 413 2444 
Q 413 2625 506 2803 
Q 600 2981 776 3126 
Q 953 3272 1201 3358 
Q 1450 3444 1756 3444 
Q 2125 3444 2408 3319 
Q 2691 3194 2852 2942 
Q 3013 2691 3013 2313 
L 3013 738 
Q 3013 569 3042 378 
Q 3072 188 3131 50 
L 3131 0 
L 2528 0 
Q 2484 100 2459 267 
Q 2434 434 2434 578 
z
M 2534 2050 
L 2541 1644 
L 1956 1644 
Q 1709 1644 1515 1605 
Q 1322 1566 1190 1487 
Q 1059 1409 990 1292 
Q 922 1175 922 1019 
Q 922 859 994 728 
Q 1066 597 1211 520 
Q 1356 444 1569 444 
Q 1834 444 2037 556 
Q 2241 669 2361 831 
Q 2481 994 2491 1147 
L 2738 869 
Q 2716 738 2619 578 
Q 2522 419 2361 273 
Q 2200 128 1979 32 
Q 1759 -63 1484 -63 
Q 1141 -63 883 71 
Q 625 206 483 432 
Q 341 659 341 941 
Q 341 1213 447 1420 
Q 553 1628 753 1767 
Q 953 1906 1234 1978 
Q 1516 2050 1863 2050 
L 2534 2050 
z
" transform="scale(0.015625)"/>
       <path id="Roboto-Regular-65" d="M 1844 -63 
Q 1491 -63 1205 57 
Q 919 178 714 397 
Q 509 616 400 916 
Q 291 1216 291 1572 
L 291 1703 
Q 291 2116 412 2439 
Q 534 2763 743 2988 
Q 953 3213 1218 3328 
Q 1484 3444 1769 3444 
Q 2131 3444 2395 3319 
Q 2659 3194 2828 2970 
Q 2997 2747 3078 2445 
Q 3159 2144 3159 1788 
L 3159 1528 
L 634 1528 
L 634 2000 
L 2581 2000 
L 2581 2044 
Q 2569 2269 2489 2481 
Q 2409 2694 2237 2831 
Q 2066 2969 1769 2969 
Q 1572 2969 1406 2886 
Q 1241 2803 1122 2640 
Q 1003 2478 937 2243 
Q 872 2009 872 1703 
L 872 1572 
Q 872 1331 939 1120 
Q 1006 909 1136 750 
Q 1266 591 1452 500 
Q 1638 409 1875 409 
Q 2181 409 2393 534 
Q 2606 659 2766 869 
L 3116 591 
Q 3006 425 2837 275 
Q 2669 125 2423 31 
Q 2178 -63 1844 -63 
z
" transform="scale(0.015625)"/>
      </defs>
      <use xlink:href="#Roboto-Regular-53"/>
      <use xlink:href="#Roboto-Regular-74" transform="translate(59.375 0)"/>
      <use xlink:href="#Roboto-Regular-61" transform="translate(92.089844 0)"/>
      <use xlink:href="#Roboto-Regular-74" transform="translate(146.484375 0)"/>
      <use xlink:href="#Roboto-Regular-65" transform="translate(179.199219 0)"/>
     </g>
    </g>
   </g>
   <g id="matplotlib.axis_2">
    <g id="ytick_1">
     <g id="line2d_6">
      <defs>
       <path id="m3eff402450" d="M 0 0 
L -3.5 0 
" style="stroke: #000000; stroke-width: 1.5"/>
      </defs>
      <g>
       <use xlink:href="#m3eff402450" x="74.63" y="253.6" style="stroke: #000000; stroke-width: 1.5"/>
      </g>
     </g>
     <g id="text_7">
      <!-- 0.00 -->
      <g transform="translate(36.4325 259.6) scale(0.16 -0.16)">
       <defs>
        <path id="Roboto-Regular-2e" d="M 450 306 
Q 450 453 542 554 
Q 634 656 809 656 
Q 984 656 1076 554 
Q 1169 453 1169 306 
Q 1169 163 1076 62 
Q 984 -38 809 -38 
Q 634 -38 542 62 
Q 450 163 450 306 
z
" transform="scale(0.015625)"/>
       </defs>
       <use xlink:href="#Roboto-Regular-30"/>
       <use xlink:href="#Roboto-Regular-2e" transform="translate(56.201172 0)"/>
       <use xlink:href="#Roboto-Regular-30" transform="translate(82.568359 0)"/>
       <use xlink:href="#Roboto-Regular-30" transform="translate(138.769531 0)"/>
      </g>
     </g>
    </g>
    <g id="ytick_2">
     <g id="line2d_7">
      <g>
       <use xlink:href="#m3eff402450" x="74.63" y="212.652344" style="stroke: #000000; stroke-width: 1.5"/>
      </g>
     </g>
     <g id="text_8">
      <!-- 0.05 -->
      <g transform="translate(36.4325 218.652344) scale(0.16 -0.16)">
       <defs>
        <path id="Roboto-Regular-35" d="M 1109 2166 
L 647 2284 
L 875 4550 
L 3209 4550 
L 3209 4016 
L 1366 4016 
L 1228 2778 
Q 1353 2850 1545 2912 
Q 1738 2975 1988 2975 
Q 2303 2975 2553 2867 
Q 2803 2759 2979 2559 
Q 3156 2359 3250 2078 
Q 3344 1797 3344 1450 
Q 3344 1122 3255 847 
Q 3166 572 2987 367 
Q 2809 163 2539 50 
Q 2269 -63 1903 -63 
Q 1628 -63 1383 14 
Q 1138 91 945 248 
Q 753 406 633 642 
Q 513 878 481 1197 
L 1031 1197 
Q 1069 941 1181 766 
Q 1294 591 1476 502 
Q 1659 413 1903 413 
Q 2109 413 2268 484 
Q 2428 556 2537 690 
Q 2647 825 2705 1015 
Q 2763 1206 2763 1444 
Q 2763 1659 2703 1843 
Q 2644 2028 2526 2165 
Q 2409 2303 2240 2379 
Q 2072 2456 1853 2456 
Q 1563 2456 1414 2378 
Q 1266 2300 1109 2166 
z
" transform="scale(0.015625)"/>
       </defs>
       <use xlink:href="#Roboto-Regular-30"/>
       <use xlink:href="#Roboto-Regular-2e" transform="translate(56.201172 0)"/>
       <use xlink:href="#Roboto-Regular-30" transform="translate(82.568359 0)"/>
       <use xlink:href="#Roboto-Regular-35" transform="translate(138.769531 0)"/>
      </g>
     </g>
    </g>
    <g id="ytick_3">
     <g id="line2d_8">
      <g>
       <use xlink:href="#m3eff402450" x="74.63" y="171.704688" style="stroke: #000000; stroke-width: 1.5"/>
      </g>
     </g>
     <g id="text_9">
      <!-- 0.10 -->
      <g transform="translate(36.4325 177.704688) scale(0.16 -0.16)">
       <use xlink:href="#Roboto-Regular-30"/>
       <use xlink:href="#Roboto-Regular-2e" transform="translate(56.201172 0)"/>
       <use xlink:href="#Roboto-Regular-31" transform="translate(82.568359 0)"/>
       <use xlink:href="#Roboto-Regular-30" transform="translate(138.769531 0)"/>
      </g>
     </g>
    </g>
    <g id="ytick_4">
     <g id="line2d_9">
      <g>
       <use xlink:href="#m3eff402450" x="74.63" y="130.757032" style="stroke: #000000; stroke-width: 1.5"/>
      </g>
     </g>
     <g id="text_10">
      <!-- 0.15 -->
      <g transform="translate(36.4325 136.757032) scale(0.16 -0.16)">
       <use xlink:href="#Roboto-Regular-30"/>
       <use xlink:href="#Roboto-Regular-2e" transform="translate(56.201172 0)"/>
       <use xlink:href="#Roboto-Regular-31" transform="translate(82.568359 0)"/>
       <use xlink:href="#Roboto-Regular-35" transform="translate(138.769531 0)"/>
      </g>
     </g>
    </g>
    <g id="ytick_5">
     <g id="line2d_10">
      <g>
       <use xlink:href="#m3eff402450" x="74.63" y="89.809377" style="stroke: #000000; stroke-width: 1.5"/>
      </g>
     </g>
     <g id="text_11">
      <!-- 0.20 -->
      <g transform="translate(36.4325 95.809377) scale(0.16 -0.16)">
       <defs>
        <path id="Roboto-Regular-32" d="M 3359 475 
L 3359 0 
L 381 0 
L 381 416 
L 1872 2075 
Q 2147 2381 2298 2595 
Q 2450 2809 2511 2979 
Q 2572 3150 2572 3328 
Q 2572 3553 2480 3736 
Q 2388 3919 2209 4028 
Q 2031 4138 1778 4138 
Q 1475 4138 1273 4020 
Q 1072 3903 972 3693 
Q 872 3484 872 3213 
L 294 3213 
Q 294 3597 462 3915 
Q 631 4234 962 4423 
Q 1294 4613 1778 4613 
Q 2209 4613 2515 4461 
Q 2822 4309 2986 4036 
Q 3150 3763 3150 3397 
Q 3150 3197 3083 2992 
Q 3016 2788 2898 2584 
Q 2781 2381 2626 2184 
Q 2472 1988 2297 1797 
L 1078 475 
L 3359 475 
z
" transform="scale(0.015625)"/>
       </defs>
       <use xlink:href="#Roboto-Regular-30"/>
       <use xlink:href="#Roboto-Regular-2e" transform="translate(56.201172 0)"/>
       <use xlink:href="#Roboto-Regular-32" transform="translate(82.568359 0)"/>
       <use xlink:href="#Roboto-Regular-30" transform="translate(138.769531 0)"/>
      </g>
     </g>
    </g>
    <g id="ytick_6">
     <g id="line2d_11">
      <g>
       <use xlink:href="#m3eff402450" x="74.63" y="48.861721" style="stroke: #000000; stroke-width: 1.5"/>
      </g>
     </g>
     <g id="text_12">
      <!-- 0.25 -->
      <g transform="translate(36.4325 54.861721) scale(0.16 -0.16)">
       <use xlink:href="#Roboto-Regular-30"/>
       <use xlink:href="#Roboto-Regular-2e" transform="translate(56.201172 0)"/>
       <use xlink:href="#Roboto-Regular-32" transform="translate(82.568359 0)"/>
       <use xlink:href="#Roboto-Regular-35" transform="translate(138.769531 0)"/>
      </g>
     </g>
    </g>
    <g id="text_13">
     <!-- Fraction of States -->
     <g transform="translate(29.1825 198.67625) rotate(-90) scale(0.16 -0.16)">
      <defs>
       <path id="Roboto-Regular-46" d="M 1131 4550 
L 1131 0 
L 528 0 
L 528 4550 
L 1131 4550 
z
M 3038 2503 
L 3038 2009 
L 1000 2009 
L 1000 2503 
L 3038 2503 
z
M 3347 4550 
L 3347 4056 
L 1000 4056 
L 1000 4550 
L 3347 4550 
z
" transform="scale(0.015625)"/>
       <path id="Roboto-Regular-72" d="M 1019 2850 
L 1019 0 
L 441 0 
L 441 3381 
L 1003 3381 
L 1019 2850 
z
M 2075 3400 
L 2072 2863 
Q 2000 2878 1936 2883 
Q 1872 2888 1791 2888 
Q 1591 2888 1437 2825 
Q 1284 2763 1178 2650 
Q 1072 2538 1011 2383 
Q 950 2228 931 2044 
L 769 1950 
Q 769 2256 830 2525 
Q 891 2794 1019 3001 
Q 1147 3209 1345 3326 
Q 1544 3444 1819 3444 
Q 1881 3444 1962 3430 
Q 2044 3416 2075 3400 
z
" transform="scale(0.015625)"/>
       <path id="Roboto-Regular-63" d="M 1794 413 
Q 2000 413 2175 497 
Q 2350 581 2462 729 
Q 2575 878 2591 1069 
L 3141 1069 
Q 3125 769 2939 511 
Q 2753 253 2453 95 
Q 2153 -63 1794 -63 
Q 1413 -63 1130 71 
Q 847 206 661 440 
Q 475 675 383 979 
Q 291 1284 291 1625 
L 291 1756 
Q 291 2097 383 2401 
Q 475 2706 661 2940 
Q 847 3175 1130 3309 
Q 1413 3444 1794 3444 
Q 2191 3444 2487 3283 
Q 2784 3122 2954 2845 
Q 3125 2569 3141 2219 
L 2591 2219 
Q 2575 2428 2473 2597 
Q 2372 2766 2198 2867 
Q 2025 2969 1794 2969 
Q 1528 2969 1348 2864 
Q 1169 2759 1064 2582 
Q 959 2406 914 2192 
Q 869 1978 869 1756 
L 869 1625 
Q 869 1403 912 1187 
Q 956 972 1061 797 
Q 1166 622 1345 517 
Q 1525 413 1794 413 
z
" transform="scale(0.015625)"/>
       <path id="Roboto-Regular-69" d="M 1069 3381 
L 1069 0 
L 488 0 
L 488 3381 
L 1069 3381 
z
M 444 4278 
Q 444 4419 530 4516 
Q 616 4613 784 4613 
Q 950 4613 1039 4516 
Q 1128 4419 1128 4278 
Q 1128 4144 1039 4048 
Q 950 3953 784 3953 
Q 616 3953 530 4048 
Q 444 4144 444 4278 
z
" transform="scale(0.015625)"/>
       <path id="Roboto-Regular-6f" d="M 288 1653 
L 288 1725 
Q 288 2091 394 2405 
Q 500 2719 700 2951 
Q 900 3184 1184 3314 
Q 1469 3444 1822 3444 
Q 2178 3444 2464 3314 
Q 2750 3184 2951 2951 
Q 3153 2719 3259 2405 
Q 3366 2091 3366 1725 
L 3366 1653 
Q 3366 1288 3259 975 
Q 3153 663 2951 430 
Q 2750 197 2467 67 
Q 2184 -63 1828 -63 
Q 1472 -63 1187 67 
Q 903 197 701 430 
Q 500 663 394 975 
Q 288 1288 288 1653 
z
M 866 1725 
L 866 1653 
Q 866 1400 925 1176 
Q 984 953 1104 781 
Q 1225 609 1406 511 
Q 1588 413 1828 413 
Q 2066 413 2245 511 
Q 2425 609 2544 781 
Q 2663 953 2723 1176 
Q 2784 1400 2784 1653 
L 2784 1725 
Q 2784 1975 2723 2198 
Q 2663 2422 2542 2595 
Q 2422 2769 2242 2869 
Q 2063 2969 1822 2969 
Q 1584 2969 1404 2869 
Q 1225 2769 1104 2595 
Q 984 2422 925 2198 
Q 866 1975 866 1725 
z
" transform="scale(0.015625)"/>
       <path id="Roboto-Regular-6e" d="M 1019 2659 
L 1019 0 
L 441 0 
L 441 3381 
L 988 3381 
L 1019 2659 
z
M 881 1819 
L 641 1828 
Q 644 2175 744 2470 
Q 844 2766 1025 2984 
Q 1206 3203 1457 3323 
Q 1709 3444 2016 3444 
Q 2266 3444 2466 3376 
Q 2666 3309 2808 3162 
Q 2950 3016 3025 2783 
Q 3100 2550 3100 2216 
L 3100 0 
L 2519 0 
L 2519 2222 
Q 2519 2488 2441 2648 
Q 2363 2809 2213 2882 
Q 2063 2956 1844 2956 
Q 1628 2956 1451 2865 
Q 1275 2775 1148 2615 
Q 1022 2456 951 2251 
Q 881 2047 881 1819 
z
" transform="scale(0.015625)"/>
       <path id="Roboto-Regular-20" transform="scale(0.015625)"/>
       <path id="Roboto-Regular-66" d="M 1303 0 
L 725 0 
L 725 3738 
Q 725 4103 858 4354 
Q 991 4606 1241 4736 
Q 1491 4866 1834 4866 
Q 1934 4866 2036 4853 
Q 2138 4841 2234 4816 
L 2203 4344 
Q 2138 4359 2055 4365 
Q 1972 4372 1891 4372 
Q 1706 4372 1573 4298 
Q 1441 4225 1372 4084 
Q 1303 3944 1303 3738 
L 1303 0 
z
M 2022 3381 
L 2022 2938 
L 191 2938 
L 191 3381 
L 2022 3381 
z
" transform="scale(0.015625)"/>
       <path id="Roboto-Regular-73" d="M 2409 897 
Q 2409 1022 2354 1130 
Q 2300 1238 2133 1327 
Q 1966 1416 1631 1481 
Q 1350 1541 1123 1622 
Q 897 1703 739 1818 
Q 581 1934 497 2090 
Q 413 2247 413 2456 
Q 413 2656 502 2834 
Q 591 3013 755 3150 
Q 919 3288 1150 3366 
Q 1381 3444 1666 3444 
Q 2072 3444 2359 3300 
Q 2647 3156 2800 2917 
Q 2953 2678 2953 2388 
L 2375 2388 
Q 2375 2528 2292 2661 
Q 2209 2794 2051 2881 
Q 1894 2969 1666 2969 
Q 1425 2969 1276 2895 
Q 1128 2822 1061 2709 
Q 994 2597 994 2472 
Q 994 2378 1026 2304 
Q 1059 2231 1143 2170 
Q 1228 2109 1381 2056 
Q 1534 2003 1772 1950 
Q 2188 1856 2456 1725 
Q 2725 1594 2856 1403 
Q 2988 1213 2988 941 
Q 2988 719 2895 534 
Q 2803 350 2629 217 
Q 2456 84 2217 10 
Q 1978 -63 1681 -63 
Q 1234 -63 925 96 
Q 616 256 456 509 
Q 297 763 297 1044 
L 878 1044 
Q 891 806 1016 667 
Q 1141 528 1322 470 
Q 1503 413 1681 413 
Q 1919 413 2080 475 
Q 2241 538 2325 647 
Q 2409 756 2409 897 
z
" transform="scale(0.015625)"/>
      </defs>
      <use xlink:href="#Roboto-Regular-46"/>
      <use xlink:href="#Roboto-Regular-72" transform="translate(55.273438 0)"/>
      <use xlink:href="#Roboto-Regular-61" transform="translate(89.160156 0)"/>
      <use xlink:href="#Roboto-Regular-63" transform="translate(143.554688 0)"/>
      <use xlink:href="#Roboto-Regular-74" transform="translate(195.898438 0)"/>
      <use xlink:href="#Roboto-Regular-69" transform="translate(228.613281 0)"/>
      <use xlink:href="#Roboto-Regular-6f" transform="translate(252.929688 0)"/>
      <use xlink:href="#Roboto-Regular-6e" transform="translate(309.960938 0)"/>
      <use xlink:href="#Roboto-Regular-20" transform="translate(365.185547 0)"/>
      <use xlink:href="#Roboto-Regular-6f" transform="translate(389.990234 0)"/>
      <use xlink:href="#Roboto-Regular-66" transform="translate(447.021484 0)"/>
      <use xlink:href="#Roboto-Regular-20" transform="translate(481.787109 0)"/>
      <use xlink:href="#Roboto-Regular-53" transform="translate(506.591797 0)"/>
      <use xlink:href="#Roboto-Regular-74" transform="translate(565.966797 0)"/>
      <use xlink:href="#Roboto-Regular-61" transform="translate(598.681641 0)"/>
      <use xlink:href="#Roboto-Regular-74" transform="translate(653.076172 0)"/>
      <use xlink:href="#Roboto-Regular-65" transform="translate(685.791016 0)"/>
      <use xlink:href="#Roboto-Regular-73" transform="translate(738.818359 0)"/>
     </g>
    </g>
   </g>
   <g id="line2d_12">
    <path d="M 96.0772 111.851589 
L 106.8008 111.851589 
M 101.439 111.851589 
L 101.439 48.993939 
M 96.0772 48.993939 
L 106.8008 48.993939 
" clip-path="url(#pf778b7bcea)" style="fill: none; stroke: #424242; stroke-width: 2.25; stroke-linecap: square"/>
   </g>
   <g id="line2d_13">
    <path d="M 149.6952 124.434661 
L 160.4188 124.434661 
M 155.057 124.434661 
L 155.057 121.31633 
M 149.6952 121.31633 
L 160.4188 121.31633 
" clip-path="url(#pf778b7bcea)" style="fill: none; stroke: #424242; stroke-width: 2.25; stroke-linecap: square"/>
   </g>
   <g id="line2d_14">
    <path d="M 203.3132 149.303102 
L 214.0368 149.303102 
M 208.675 149.303102 
L 208.675 127.177393 
M 203.3132 127.177393 
L 214.0368 127.177393 
" clip-path="url(#pf778b7bcea)" style="fill: none; stroke: #424242; stroke-width: 2.25; stroke-linecap: square"/>
   </g>
   <g id="line2d_15">
    <path d="M 256.9312 183.10988 
L 267.6548 183.10988 
M 262.293 183.10988 
L 262.293 174.301786 
M 256.9312 174.301786 
L 267.6548 174.301786 
" clip-path="url(#pf778b7bcea)" style="fill: none; stroke: #424242; stroke-width: 2.25; stroke-linecap: square"/>
   </g>
   <g id="line2d_16">
    <path d="M 310.5492 197.681716 
L 321.2728 197.681716 
M 315.911 197.681716 
L 315.911 182.824332 
M 310.5492 182.824332 
L 321.2728 182.824332 
" clip-path="url(#pf778b7bcea)" style="fill: none; stroke: #424242; stroke-width: 2.25; stroke-linecap: square"/>
   </g>
   <g id="patch_8">
    <path d="M 74.63 253.6 
L 74.63 17.28 
" style="fill: none; stroke: #000000; stroke-width: 1.5; stroke-linejoin: miter; stroke-linecap: square"/>
   </g>
   <g id="patch_9">
    <path d="M 342.72 253.6 
L 342.72 17.28 
" style="fill: none; stroke: #000000; stroke-width: 1.5; stroke-linejoin: miter; stroke-linecap: square"/>
   </g>
   <g id="patch_10">
    <path d="M 74.63 253.6 
L 342.72 253.6 
" style="fill: none; stroke: #000000; stroke-width: 1.5; stroke-linejoin: miter; stroke-linecap: square"/>
   </g>
   <g id="patch_11">
    <path d="M 74.63 17.28 
L 342.72 17.28 
" style="fill: none; stroke: #000000; stroke-width: 1.5; stroke-linejoin: miter; stroke-linecap: square"/>
   </g>
   <g id="text_14">
    <!-- 0.21 -->
    <g transform="translate(87.790094 37.74825) scale(0.14 -0.14)">
     <use xlink:href="#Roboto-Regular-30"/>
     <use xlink:href="#Roboto-Regular-2e" transform="translate(56.201172 0)"/>
     <use xlink:href="#Roboto-Regular-32" transform="translate(82.568359 0)"/>
     <use xlink:href="#Roboto-Regular-31" transform="translate(138.769531 0)"/>
    </g>
   </g>
   <g id="text_15">
    <!-- 0.16 -->
    <g transform="translate(141.408094 89.965109) scale(0.14 -0.14)">
     <defs>
      <path id="Roboto-Regular-36" d="M 2597 4556 
L 2647 4556 
L 2647 4066 
L 2597 4066 
Q 2138 4066 1828 3917 
Q 1519 3769 1337 3520 
Q 1156 3272 1076 2962 
Q 997 2653 997 2334 
L 997 1666 
Q 997 1363 1069 1130 
Q 1141 897 1266 737 
Q 1391 578 1548 497 
Q 1706 416 1878 416 
Q 2078 416 2234 492 
Q 2391 569 2498 708 
Q 2606 847 2662 1037 
Q 2719 1228 2719 1456 
Q 2719 1659 2669 1848 
Q 2619 2038 2516 2186 
Q 2413 2334 2258 2420 
Q 2103 2506 1891 2506 
Q 1650 2506 1442 2389 
Q 1234 2272 1101 2083 
Q 969 1894 950 1672 
L 644 1675 
Q 688 2025 808 2273 
Q 928 2522 1108 2680 
Q 1288 2838 1511 2911 
Q 1734 2984 1984 2984 
Q 2325 2984 2572 2856 
Q 2819 2728 2978 2514 
Q 3138 2300 3214 2033 
Q 3291 1766 3291 1484 
Q 3291 1163 3200 881 
Q 3109 600 2929 387 
Q 2750 175 2487 56 
Q 2225 -63 1878 -63 
Q 1509 -63 1234 89 
Q 959 241 778 494 
Q 597 747 506 1056 
Q 416 1366 416 1684 
L 416 1956 
Q 416 2438 512 2900 
Q 609 3363 848 3738 
Q 1088 4113 1513 4334 
Q 1938 4556 2597 4556 
z
" transform="scale(0.015625)"/>
     </defs>
     <use xlink:href="#Roboto-Regular-30"/>
     <use xlink:href="#Roboto-Regular-2e" transform="translate(56.201172 0)"/>
     <use xlink:href="#Roboto-Regular-31" transform="translate(82.568359 0)"/>
     <use xlink:href="#Roboto-Regular-36" transform="translate(138.769531 0)"/>
    </g>
   </g>
   <g id="text_16">
    <!-- 0.14 -->
    <g transform="translate(195.026094 108.863755) scale(0.14 -0.14)">
     <defs>
      <path id="Roboto-Regular-34" d="M 3453 1531 
L 3453 1056 
L 166 1056 
L 166 1397 
L 2203 4550 
L 2675 4550 
L 2169 3638 
L 822 1531 
L 3453 1531 
z
M 2819 4550 
L 2819 0 
L 2241 0 
L 2241 4550 
L 2819 4550 
z
" transform="scale(0.015625)"/>
     </defs>
     <use xlink:href="#Roboto-Regular-30"/>
     <use xlink:href="#Roboto-Regular-2e" transform="translate(56.201172 0)"/>
     <use xlink:href="#Roboto-Regular-31" transform="translate(82.568359 0)"/>
     <use xlink:href="#Roboto-Regular-34" transform="translate(138.769531 0)"/>
    </g>
   </g>
   <g id="text_17">
    <!-- 0.09 -->
    <g transform="translate(248.644094 158.636425) scale(0.14 -0.14)">
     <defs>
      <path id="Roboto-Regular-39" d="M 953 484 
L 1013 484 
Q 1513 484 1825 625 
Q 2138 766 2306 1003 
Q 2475 1241 2537 1539 
Q 2600 1838 2600 2153 
L 2600 2850 
Q 2600 3159 2529 3400 
Q 2459 3641 2336 3803 
Q 2213 3966 2056 4050 
Q 1900 4134 1725 4134 
Q 1525 4134 1367 4054 
Q 1209 3975 1101 3831 
Q 994 3688 937 3494 
Q 881 3300 881 3072 
Q 881 2869 931 2678 
Q 981 2488 1084 2334 
Q 1188 2181 1342 2092 
Q 1497 2003 1706 2003 
Q 1900 2003 2070 2079 
Q 2241 2156 2373 2289 
Q 2506 2422 2586 2590 
Q 2666 2759 2678 2944 
L 2953 2944 
Q 2953 2684 2851 2432 
Q 2750 2181 2569 1975 
Q 2388 1769 2144 1645 
Q 1900 1522 1613 1522 
Q 1275 1522 1028 1653 
Q 781 1784 623 2003 
Q 466 2222 389 2492 
Q 313 2763 313 3041 
Q 313 3366 403 3650 
Q 494 3934 672 4151 
Q 850 4369 1114 4491 
Q 1378 4613 1725 4613 
Q 2116 4613 2391 4456 
Q 2666 4300 2839 4037 
Q 3013 3775 3094 3447 
Q 3175 3119 3175 2772 
L 3175 2563 
Q 3175 2209 3129 1845 
Q 3084 1481 2957 1150 
Q 2831 819 2590 558 
Q 2350 297 1964 145 
Q 1578 -6 1013 -6 
L 953 -6 
L 953 484 
z
" transform="scale(0.015625)"/>
     </defs>
     <use xlink:href="#Roboto-Regular-30"/>
     <use xlink:href="#Roboto-Regular-2e" transform="translate(56.201172 0)"/>
     <use xlink:href="#Roboto-Regular-30" transform="translate(82.568359 0)"/>
     <use xlink:href="#Roboto-Regular-39" transform="translate(138.769531 0)"/>
    </g>
   </g>
   <g id="text_18">
    <!-- 0.08 -->
    <g transform="translate(302.262094 172.83947) scale(0.14 -0.14)">
     <defs>
      <path id="Roboto-Regular-38" d="M 3247 1231 
Q 3247 816 3055 527 
Q 2863 238 2536 87 
Q 2209 -63 1800 -63 
Q 1391 -63 1062 87 
Q 734 238 543 527 
Q 353 816 353 1231 
Q 353 1503 458 1729 
Q 563 1956 755 2125 
Q 947 2294 1211 2386 
Q 1475 2478 1794 2478 
Q 2213 2478 2541 2317 
Q 2869 2156 3058 1875 
Q 3247 1594 3247 1231 
z
M 2666 1244 
Q 2666 1497 2556 1692 
Q 2447 1888 2250 1997 
Q 2053 2106 1794 2106 
Q 1528 2106 1336 1997 
Q 1144 1888 1037 1692 
Q 931 1497 931 1244 
Q 931 981 1036 795 
Q 1141 609 1336 511 
Q 1531 413 1800 413 
Q 2069 413 2262 511 
Q 2456 609 2561 795 
Q 2666 981 2666 1244 
z
M 3141 3366 
Q 3141 3034 2966 2768 
Q 2791 2503 2487 2350 
Q 2184 2197 1800 2197 
Q 1409 2197 1104 2350 
Q 800 2503 628 2768 
Q 456 3034 456 3366 
Q 456 3763 629 4041 
Q 803 4319 1106 4466 
Q 1409 4613 1797 4613 
Q 2188 4613 2491 4466 
Q 2794 4319 2967 4041 
Q 3141 3763 3141 3366 
z
M 2563 3356 
Q 2563 3584 2466 3759 
Q 2369 3934 2197 4036 
Q 2025 4138 1797 4138 
Q 1569 4138 1398 4042 
Q 1228 3947 1133 3772 
Q 1038 3597 1038 3356 
Q 1038 3122 1133 2947 
Q 1228 2772 1400 2675 
Q 1572 2578 1800 2578 
Q 2028 2578 2198 2675 
Q 2369 2772 2466 2947 
Q 2563 3122 2563 3356 
z
" transform="scale(0.015625)"/>
     </defs>
     <use xlink:href="#Roboto-Regular-30"/>
     <use xlink:href="#Roboto-Regular-2e" transform="translate(56.201172 0)"/>
     <use xlink:href="#Roboto-Regular-30" transform="translate(82.568359 0)"/>
     <use xlink:href="#Roboto-Regular-38" transform="translate(138.769531 0)"/>
    </g>
   </g>
  </g>
 </g>
 <defs>
  <clipPath id="pf778b7bcea">
   <rect x="74.63" y="17.28" width="268.09" height="236.32"/>
  </clipPath>
 </defs>
</svg>
