<?xml version="1.0" encoding="utf-8" standalone="no"?>
<!DOCTYPE svg PUBLIC "-//W3C//DTD SVG 1.1//EN"
  "http://www.w3.org/Graphics/SVG/1.1/DTD/svg11.dtd">
<svg xmlns:xlink="http://www.w3.org/1999/xlink" width="432pt" height="288pt" viewBox="0 0 432 288" xmlns="http://www.w3.org/2000/svg" version="1.1">
 <metadata>
  <rdf:RDF xmlns:dc="http://purl.org/dc/elements/1.1/" xmlns:cc="http://creativecommons.org/ns#" xmlns:rdf="http://www.w3.org/1999/02/22-rdf-syntax-ns#">
   <cc:Work>
    <dc:type rdf:resource="http://purl.org/dc/dcmitype/StillImage"/>
    <dc:date>2025-05-22T15:27:50.431492</dc:date>
    <dc:format>image/svg+xml</dc:format>
    <dc:creator>
     <cc:Agent>
      <dc:title>Matplotlib v3.10.3, https://matplotlib.org/</dc:title>
     </cc:Agent>
    </dc:creator>
   </cc:Work>
  </rdf:RDF>
 </metadata>
 <defs>
  <style type="text/css">*{stroke-linejoin: round; stroke-linecap: butt}</style>
 </defs>
 <g id="figure_1">
  <g id="patch_1">
   <path d="M 0 288 
L 432 288 
L 432 0 
L 0 0 
z
" style="fill: #ffffff"/>
  </g>
  <g id="axes_1">
   <g id="patch_2">
    <path d="M 62.91875 229.48 
L 414.72 229.48 
L 414.72 17.28 
L 62.91875 17.28 
z
" style="fill: #ffffff"/>
   </g>
   <g id="patch_3">
    <path d="M 78.909716 229.48 
L 105.017415 229.48 
L 105.017415 36.570909 
L 78.909716 36.570909 
z
" clip-path="url(#p31b62a1eb8)" style="fill: #64b5cd; stroke: #000000; stroke-width: 1.5; stroke-linejoin: miter"/>
   </g>
   <g id="patch_4">
    <path d="M 111.54434 229.48 
L 137.65204 229.48 
L 137.65204 206.581498 
L 111.54434 206.581498 
z
" clip-path="url(#p31b62a1eb8)" style="fill: #64b5cd; stroke: #000000; stroke-width: 1.5; stroke-linejoin: miter"/>
   </g>
   <g id="patch_5">
    <path d="M 144.178965 229.48 
L 170.286664 229.48 
L 170.286664 211.582855 
L 144.178965 211.582855 
z
" clip-path="url(#p31b62a1eb8)" style="fill: #64b5cd; stroke: #000000; stroke-width: 1.5; stroke-linejoin: miter"/>
   </g>
   <g id="patch_6">
    <path d="M 176.813589 229.48 
L 202.921288 229.48 
L 202.921288 215.403071 
L 176.813589 215.403071 
z
" clip-path="url(#p31b62a1eb8)" style="fill: #64b5cd; stroke: #000000; stroke-width: 1.5; stroke-linejoin: miter"/>
   </g>
   <g id="patch_7">
    <path d="M 209.448213 229.48 
L 235.555913 229.48 
L 235.555913 217.844973 
L 209.448213 217.844973 
z
" clip-path="url(#p31b62a1eb8)" style="fill: #64b5cd; stroke: #000000; stroke-width: 1.5; stroke-linejoin: miter"/>
   </g>
   <g id="patch_8">
    <path d="M 242.082837 229.48 
L 268.190537 229.48 
L 268.190537 220.401417 
L 242.082837 220.401417 
z
" clip-path="url(#p31b62a1eb8)" style="fill: #64b5cd; stroke: #000000; stroke-width: 1.5; stroke-linejoin: miter"/>
   </g>
   <g id="patch_9">
    <path d="M 274.717462 229.48 
L 300.825161 229.48 
L 300.825161 224.286526 
L 274.717462 224.286526 
z
" clip-path="url(#p31b62a1eb8)" style="fill: #64b5cd; stroke: #000000; stroke-width: 1.5; stroke-linejoin: miter"/>
   </g>
   <g id="patch_10">
    <path d="M 307.352086 229.48 
L 333.459785 229.48 
L 333.459785 226.537162 
L 307.352086 226.537162 
z
" clip-path="url(#p31b62a1eb8)" style="fill: #64b5cd; stroke: #000000; stroke-width: 1.5; stroke-linejoin: miter"/>
   </g>
   <g id="patch_11">
    <path d="M 339.98671 229.48 
L 366.09441 229.48 
L 366.09441 227.813404 
L 339.98671 227.813404 
z
" clip-path="url(#p31b62a1eb8)" style="fill: #64b5cd; stroke: #000000; stroke-width: 1.5; stroke-linejoin: miter"/>
   </g>
   <g id="patch_12">
    <path d="M 372.621335 229.48 
L 398.729034 229.48 
L 398.729034 228.707318 
L 372.621335 228.707318 
z
" clip-path="url(#p31b62a1eb8)" style="fill: #64b5cd; stroke: #000000; stroke-width: 1.5; stroke-linejoin: miter"/>
   </g>
   <g id="matplotlib.axis_1">
    <g id="xtick_1">
     <g id="line2d_1">
      <defs>
       <path id="m81bf49182d" d="M 0 0 
L 0 3.5 
" style="stroke: #000000; stroke-width: 1.5"/>
      </defs>
      <g>
       <use xlink:href="#m81bf49182d" x="91.963566" y="229.48" style="stroke: #000000; stroke-width: 1.5"/>
      </g>
     </g>
     <g id="text_1">
      <!-- 1 -->
      <g transform="translate(87.467316 248.48) scale(0.16 -0.16)">
       <defs>
        <path id="Roboto-Regular-31" d="M 2278 4575 
L 2278 0 
L 1700 0 
L 1700 3853 
L 534 3428 
L 534 3950 
L 2188 4575 
L 2278 4575 
z
" transform="scale(0.015625)"/>
       </defs>
       <use xlink:href="#Roboto-Regular-31"/>
      </g>
     </g>
    </g>
    <g id="xtick_2">
     <g id="line2d_2">
      <g>
       <use xlink:href="#m81bf49182d" x="124.59819" y="229.48" style="stroke: #000000; stroke-width: 1.5"/>
      </g>
     </g>
     <g id="text_2">
      <!-- 2 -->
      <g transform="translate(120.10194 248.48) scale(0.16 -0.16)">
       <defs>
        <path id="Roboto-Regular-32" d="M 3359 475 
L 3359 0 
L 381 0 
L 381 416 
L 1872 2075 
Q 2147 2381 2298 2595 
Q 2450 2809 2511 2979 
Q 2572 3150 2572 3328 
Q 2572 3553 2480 3736 
Q 2388 3919 2209 4028 
Q 2031 4138 1778 4138 
Q 1475 4138 1273 4020 
Q 1072 3903 972 3693 
Q 872 3484 872 3213 
L 294 3213 
Q 294 3597 462 3915 
Q 631 4234 962 4423 
Q 1294 4613 1778 4613 
Q 2209 4613 2515 4461 
Q 2822 4309 2986 4036 
Q 3150 3763 3150 3397 
Q 3150 3197 3083 2992 
Q 3016 2788 2898 2584 
Q 2781 2381 2626 2184 
Q 2472 1988 2297 1797 
L 1078 475 
L 3359 475 
z
" transform="scale(0.015625)"/>
       </defs>
       <use xlink:href="#Roboto-Regular-32"/>
      </g>
     </g>
    </g>
    <g id="xtick_3">
     <g id="line2d_3">
      <g>
       <use xlink:href="#m81bf49182d" x="157.232814" y="229.48" style="stroke: #000000; stroke-width: 1.5"/>
      </g>
     </g>
     <g id="text_3">
      <!-- 3 -->
      <g transform="translate(152.736564 248.48) scale(0.16 -0.16)">
       <defs>
        <path id="Roboto-Regular-33" d="M 1222 2559 
L 1634 2559 
Q 1938 2559 2136 2661 
Q 2334 2763 2432 2939 
Q 2531 3116 2531 3338 
Q 2531 3600 2443 3778 
Q 2356 3956 2181 4047 
Q 2006 4138 1738 4138 
Q 1494 4138 1308 4042 
Q 1122 3947 1017 3772 
Q 913 3597 913 3359 
L 334 3359 
Q 334 3706 509 3990 
Q 684 4275 1001 4444 
Q 1319 4613 1738 4613 
Q 2150 4613 2459 4467 
Q 2769 4322 2941 4036 
Q 3113 3750 3113 3325 
Q 3113 3153 3033 2958 
Q 2953 2763 2786 2594 
Q 2619 2425 2353 2317 
Q 2088 2209 1716 2209 
L 1222 2209 
L 1222 2559 
z
M 1222 2084 
L 1222 2431 
L 1716 2431 
Q 2150 2431 2434 2328 
Q 2719 2225 2883 2053 
Q 3047 1881 3114 1676 
Q 3181 1472 3181 1269 
Q 3181 950 3073 703 
Q 2966 456 2770 284 
Q 2575 113 2312 25 
Q 2050 -63 1741 -63 
Q 1444 -63 1183 21 
Q 922 106 722 267 
Q 522 428 409 664 
Q 297 900 297 1203 
L 875 1203 
Q 875 966 979 787 
Q 1084 609 1279 511 
Q 1475 413 1741 413 
Q 2006 413 2198 505 
Q 2391 597 2495 784 
Q 2600 972 2600 1256 
Q 2600 1541 2481 1723 
Q 2363 1906 2145 1995 
Q 1928 2084 1634 2084 
L 1222 2084 
z
" transform="scale(0.015625)"/>
       </defs>
       <use xlink:href="#Roboto-Regular-33"/>
      </g>
     </g>
    </g>
    <g id="xtick_4">
     <g id="line2d_4">
      <g>
       <use xlink:href="#m81bf49182d" x="189.867439" y="229.48" style="stroke: #000000; stroke-width: 1.5"/>
      </g>
     </g>
     <g id="text_4">
      <!-- 4 -->
      <g transform="translate(185.371189 248.48) scale(0.16 -0.16)">
       <defs>
        <path id="Roboto-Regular-34" d="M 3453 1531 
L 3453 1056 
L 166 1056 
L 166 1397 
L 2203 4550 
L 2675 4550 
L 2169 3638 
L 822 1531 
L 3453 1531 
z
M 2819 4550 
L 2819 0 
L 2241 0 
L 2241 4550 
L 2819 4550 
z
" transform="scale(0.015625)"/>
       </defs>
       <use xlink:href="#Roboto-Regular-34"/>
      </g>
     </g>
    </g>
    <g id="xtick_5">
     <g id="line2d_5">
      <g>
       <use xlink:href="#m81bf49182d" x="222.502063" y="229.48" style="stroke: #000000; stroke-width: 1.5"/>
      </g>
     </g>
     <g id="text_5">
      <!-- 5 -->
      <g transform="translate(218.005813 248.48) scale(0.16 -0.16)">
       <defs>
        <path id="Roboto-Regular-35" d="M 1109 2166 
L 647 2284 
L 875 4550 
L 3209 4550 
L 3209 4016 
L 1366 4016 
L 1228 2778 
Q 1353 2850 1545 2912 
Q 1738 2975 1988 2975 
Q 2303 2975 2553 2867 
Q 2803 2759 2979 2559 
Q 3156 2359 3250 2078 
Q 3344 1797 3344 1450 
Q 3344 1122 3255 847 
Q 3166 572 2987 367 
Q 2809 163 2539 50 
Q 2269 -63 1903 -63 
Q 1628 -63 1383 14 
Q 1138 91 945 248 
Q 753 406 633 642 
Q 513 878 481 1197 
L 1031 1197 
Q 1069 941 1181 766 
Q 1294 591 1476 502 
Q 1659 413 1903 413 
Q 2109 413 2268 484 
Q 2428 556 2537 690 
Q 2647 825 2705 1015 
Q 2763 1206 2763 1444 
Q 2763 1659 2703 1843 
Q 2644 2028 2526 2165 
Q 2409 2303 2240 2379 
Q 2072 2456 1853 2456 
Q 1563 2456 1414 2378 
Q 1266 2300 1109 2166 
z
" transform="scale(0.015625)"/>
       </defs>
       <use xlink:href="#Roboto-Regular-35"/>
      </g>
     </g>
    </g>
    <g id="xtick_6">
     <g id="line2d_6">
      <g>
       <use xlink:href="#m81bf49182d" x="255.136687" y="229.48" style="stroke: #000000; stroke-width: 1.5"/>
      </g>
     </g>
     <g id="text_6">
      <!-- 6 -->
      <g transform="translate(250.640437 248.48) scale(0.16 -0.16)">
       <defs>
        <path id="Roboto-Regular-36" d="M 2597 4556 
L 2647 4556 
L 2647 4066 
L 2597 4066 
Q 2138 4066 1828 3917 
Q 1519 3769 1337 3520 
Q 1156 3272 1076 2962 
Q 997 2653 997 2334 
L 997 1666 
Q 997 1363 1069 1130 
Q 1141 897 1266 737 
Q 1391 578 1548 497 
Q 1706 416 1878 416 
Q 2078 416 2234 492 
Q 2391 569 2498 708 
Q 2606 847 2662 1037 
Q 2719 1228 2719 1456 
Q 2719 1659 2669 1848 
Q 2619 2038 2516 2186 
Q 2413 2334 2258 2420 
Q 2103 2506 1891 2506 
Q 1650 2506 1442 2389 
Q 1234 2272 1101 2083 
Q 969 1894 950 1672 
L 644 1675 
Q 688 2025 808 2273 
Q 928 2522 1108 2680 
Q 1288 2838 1511 2911 
Q 1734 2984 1984 2984 
Q 2325 2984 2572 2856 
Q 2819 2728 2978 2514 
Q 3138 2300 3214 2033 
Q 3291 1766 3291 1484 
Q 3291 1163 3200 881 
Q 3109 600 2929 387 
Q 2750 175 2487 56 
Q 2225 -63 1878 -63 
Q 1509 -63 1234 89 
Q 959 241 778 494 
Q 597 747 506 1056 
Q 416 1366 416 1684 
L 416 1956 
Q 416 2438 512 2900 
Q 609 3363 848 3738 
Q 1088 4113 1513 4334 
Q 1938 4556 2597 4556 
z
" transform="scale(0.015625)"/>
       </defs>
       <use xlink:href="#Roboto-Regular-36"/>
      </g>
     </g>
    </g>
    <g id="xtick_7">
     <g id="line2d_7">
      <g>
       <use xlink:href="#m81bf49182d" x="287.771311" y="229.48" style="stroke: #000000; stroke-width: 1.5"/>
      </g>
     </g>
     <g id="text_7">
      <!-- 7 -->
      <g transform="translate(283.275061 248.48) scale(0.16 -0.16)">
       <defs>
        <path id="Roboto-Regular-37" d="M 3319 4550 
L 3319 4225 
L 1434 0 
L 825 0 
L 2706 4075 
L 244 4075 
L 244 4550 
L 3319 4550 
z
" transform="scale(0.015625)"/>
       </defs>
       <use xlink:href="#Roboto-Regular-37"/>
      </g>
     </g>
    </g>
    <g id="xtick_8">
     <g id="line2d_8">
      <g>
       <use xlink:href="#m81bf49182d" x="320.405936" y="229.48" style="stroke: #000000; stroke-width: 1.5"/>
      </g>
     </g>
     <g id="text_8">
      <!-- 8 -->
      <g transform="translate(315.909686 248.48) scale(0.16 -0.16)">
       <defs>
        <path id="Roboto-Regular-38" d="M 3247 1231 
Q 3247 816 3055 527 
Q 2863 238 2536 87 
Q 2209 -63 1800 -63 
Q 1391 -63 1062 87 
Q 734 238 543 527 
Q 353 816 353 1231 
Q 353 1503 458 1729 
Q 563 1956 755 2125 
Q 947 2294 1211 2386 
Q 1475 2478 1794 2478 
Q 2213 2478 2541 2317 
Q 2869 2156 3058 1875 
Q 3247 1594 3247 1231 
z
M 2666 1244 
Q 2666 1497 2556 1692 
Q 2447 1888 2250 1997 
Q 2053 2106 1794 2106 
Q 1528 2106 1336 1997 
Q 1144 1888 1037 1692 
Q 931 1497 931 1244 
Q 931 981 1036 795 
Q 1141 609 1336 511 
Q 1531 413 1800 413 
Q 2069 413 2262 511 
Q 2456 609 2561 795 
Q 2666 981 2666 1244 
z
M 3141 3366 
Q 3141 3034 2966 2768 
Q 2791 2503 2487 2350 
Q 2184 2197 1800 2197 
Q 1409 2197 1104 2350 
Q 800 2503 628 2768 
Q 456 3034 456 3366 
Q 456 3763 629 4041 
Q 803 4319 1106 4466 
Q 1409 4613 1797 4613 
Q 2188 4613 2491 4466 
Q 2794 4319 2967 4041 
Q 3141 3763 3141 3366 
z
M 2563 3356 
Q 2563 3584 2466 3759 
Q 2369 3934 2197 4036 
Q 2025 4138 1797 4138 
Q 1569 4138 1398 4042 
Q 1228 3947 1133 3772 
Q 1038 3597 1038 3356 
Q 1038 3122 1133 2947 
Q 1228 2772 1400 2675 
Q 1572 2578 1800 2578 
Q 2028 2578 2198 2675 
Q 2369 2772 2466 2947 
Q 2563 3122 2563 3356 
z
" transform="scale(0.015625)"/>
       </defs>
       <use xlink:href="#Roboto-Regular-38"/>
      </g>
     </g>
    </g>
    <g id="xtick_9">
     <g id="line2d_9">
      <g>
       <use xlink:href="#m81bf49182d" x="353.04056" y="229.48" style="stroke: #000000; stroke-width: 1.5"/>
      </g>
     </g>
     <g id="text_9">
      <!-- 9 -->
      <g transform="translate(348.54431 248.48) scale(0.16 -0.16)">
       <defs>
        <path id="Roboto-Regular-39" d="M 953 484 
L 1013 484 
Q 1513 484 1825 625 
Q 2138 766 2306 1003 
Q 2475 1241 2537 1539 
Q 2600 1838 2600 2153 
L 2600 2850 
Q 2600 3159 2529 3400 
Q 2459 3641 2336 3803 
Q 2213 3966 2056 4050 
Q 1900 4134 1725 4134 
Q 1525 4134 1367 4054 
Q 1209 3975 1101 3831 
Q 994 3688 937 3494 
Q 881 3300 881 3072 
Q 881 2869 931 2678 
Q 981 2488 1084 2334 
Q 1188 2181 1342 2092 
Q 1497 2003 1706 2003 
Q 1900 2003 2070 2079 
Q 2241 2156 2373 2289 
Q 2506 2422 2586 2590 
Q 2666 2759 2678 2944 
L 2953 2944 
Q 2953 2684 2851 2432 
Q 2750 2181 2569 1975 
Q 2388 1769 2144 1645 
Q 1900 1522 1613 1522 
Q 1275 1522 1028 1653 
Q 781 1784 623 2003 
Q 466 2222 389 2492 
Q 313 2763 313 3041 
Q 313 3366 403 3650 
Q 494 3934 672 4151 
Q 850 4369 1114 4491 
Q 1378 4613 1725 4613 
Q 2116 4613 2391 4456 
Q 2666 4300 2839 4037 
Q 3013 3775 3094 3447 
Q 3175 3119 3175 2772 
L 3175 2563 
Q 3175 2209 3129 1845 
Q 3084 1481 2957 1150 
Q 2831 819 2590 558 
Q 2350 297 1964 145 
Q 1578 -6 1013 -6 
L 953 -6 
L 953 484 
z
" transform="scale(0.015625)"/>
       </defs>
       <use xlink:href="#Roboto-Regular-39"/>
      </g>
     </g>
    </g>
    <g id="xtick_10">
     <g id="line2d_10">
      <g>
       <use xlink:href="#m81bf49182d" x="385.675184" y="229.48" style="stroke: #000000; stroke-width: 1.5"/>
      </g>
     </g>
     <g id="text_10">
      <!-- 10 -->
      <g transform="translate(376.682684 248.48) scale(0.16 -0.16)">
       <defs>
        <path id="Roboto-Regular-30" d="M 3234 2638 
L 3234 1944 
Q 3234 1384 3134 1000 
Q 3034 616 2846 381 
Q 2659 147 2395 42 
Q 2131 -63 1800 -63 
Q 1538 -63 1316 3 
Q 1094 69 917 214 
Q 741 359 616 593 
Q 491 828 425 1162 
Q 359 1497 359 1944 
L 359 2638 
Q 359 3197 461 3575 
Q 563 3953 750 4183 
Q 938 4413 1202 4513 
Q 1466 4613 1794 4613 
Q 2059 4613 2282 4548 
Q 2506 4484 2681 4345 
Q 2856 4206 2979 3976 
Q 3103 3747 3168 3415 
Q 3234 3084 3234 2638 
z
M 2653 1850 
L 2653 2734 
Q 2653 3041 2617 3273 
Q 2581 3506 2512 3672 
Q 2444 3838 2339 3941 
Q 2234 4044 2098 4092 
Q 1963 4141 1794 4141 
Q 1588 4141 1428 4064 
Q 1269 3988 1161 3822 
Q 1053 3656 997 3387 
Q 941 3119 941 2734 
L 941 1850 
Q 941 1544 977 1309 
Q 1013 1075 1084 904 
Q 1156 734 1259 625 
Q 1363 516 1498 464 
Q 1634 413 1800 413 
Q 2013 413 2172 494 
Q 2331 575 2439 748 
Q 2547 922 2600 1195 
Q 2653 1469 2653 1850 
z
" transform="scale(0.015625)"/>
       </defs>
       <use xlink:href="#Roboto-Regular-31"/>
       <use xlink:href="#Roboto-Regular-30" transform="translate(56.201172 0)"/>
      </g>
     </g>
    </g>
    <g id="text_11">
     <!-- Principal Component -->
     <g transform="translate(164.255625 267.73) scale(0.16 -0.16)">
      <defs>
       <path id="Roboto-Regular-50" d="M 2206 1784 
L 991 1784 
L 991 2275 
L 2206 2275 
Q 2559 2275 2778 2387 
Q 2997 2500 3098 2700 
Q 3200 2900 3200 3156 
Q 3200 3391 3098 3597 
Q 2997 3803 2778 3929 
Q 2559 4056 2206 4056 
L 1131 4056 
L 1131 0 
L 528 0 
L 528 4550 
L 2206 4550 
Q 2722 4550 3078 4372 
Q 3434 4194 3618 3880 
Q 3803 3566 3803 3163 
Q 3803 2725 3618 2415 
Q 3434 2106 3078 1945 
Q 2722 1784 2206 1784 
z
" transform="scale(0.015625)"/>
       <path id="Roboto-Regular-72" d="M 1019 2850 
L 1019 0 
L 441 0 
L 441 3381 
L 1003 3381 
L 1019 2850 
z
M 2075 3400 
L 2072 2863 
Q 2000 2878 1936 2883 
Q 1872 2888 1791 2888 
Q 1591 2888 1437 2825 
Q 1284 2763 1178 2650 
Q 1072 2538 1011 2383 
Q 950 2228 931 2044 
L 769 1950 
Q 769 2256 830 2525 
Q 891 2794 1019 3001 
Q 1147 3209 1345 3326 
Q 1544 3444 1819 3444 
Q 1881 3444 1962 3430 
Q 2044 3416 2075 3400 
z
" transform="scale(0.015625)"/>
       <path id="Roboto-Regular-69" d="M 1069 3381 
L 1069 0 
L 488 0 
L 488 3381 
L 1069 3381 
z
M 444 4278 
Q 444 4419 530 4516 
Q 616 4613 784 4613 
Q 950 4613 1039 4516 
Q 1128 4419 1128 4278 
Q 1128 4144 1039 4048 
Q 950 3953 784 3953 
Q 616 3953 530 4048 
Q 444 4144 444 4278 
z
" transform="scale(0.015625)"/>
       <path id="Roboto-Regular-6e" d="M 1019 2659 
L 1019 0 
L 441 0 
L 441 3381 
L 988 3381 
L 1019 2659 
z
M 881 1819 
L 641 1828 
Q 644 2175 744 2470 
Q 844 2766 1025 2984 
Q 1206 3203 1457 3323 
Q 1709 3444 2016 3444 
Q 2266 3444 2466 3376 
Q 2666 3309 2808 3162 
Q 2950 3016 3025 2783 
Q 3100 2550 3100 2216 
L 3100 0 
L 2519 0 
L 2519 2222 
Q 2519 2488 2441 2648 
Q 2363 2809 2213 2882 
Q 2063 2956 1844 2956 
Q 1628 2956 1451 2865 
Q 1275 2775 1148 2615 
Q 1022 2456 951 2251 
Q 881 2047 881 1819 
z
" transform="scale(0.015625)"/>
       <path id="Roboto-Regular-63" d="M 1794 413 
Q 2000 413 2175 497 
Q 2350 581 2462 729 
Q 2575 878 2591 1069 
L 3141 1069 
Q 3125 769 2939 511 
Q 2753 253 2453 95 
Q 2153 -63 1794 -63 
Q 1413 -63 1130 71 
Q 847 206 661 440 
Q 475 675 383 979 
Q 291 1284 291 1625 
L 291 1756 
Q 291 2097 383 2401 
Q 475 2706 661 2940 
Q 847 3175 1130 3309 
Q 1413 3444 1794 3444 
Q 2191 3444 2487 3283 
Q 2784 3122 2954 2845 
Q 3125 2569 3141 2219 
L 2591 2219 
Q 2575 2428 2473 2597 
Q 2372 2766 2198 2867 
Q 2025 2969 1794 2969 
Q 1528 2969 1348 2864 
Q 1169 2759 1064 2582 
Q 959 2406 914 2192 
Q 869 1978 869 1756 
L 869 1625 
Q 869 1403 912 1187 
Q 956 972 1061 797 
Q 1166 622 1345 517 
Q 1525 413 1794 413 
z
" transform="scale(0.015625)"/>
       <path id="Roboto-Regular-70" d="M 1019 2731 
L 1019 -1300 
L 438 -1300 
L 438 3381 
L 969 3381 
L 1019 2731 
z
M 3297 1719 
L 3297 1653 
Q 3297 1284 3209 970 
Q 3122 656 2955 425 
Q 2788 194 2544 65 
Q 2300 -63 1984 -63 
Q 1663 -63 1416 43 
Q 1169 150 997 353 
Q 825 556 723 840 
Q 622 1125 584 1481 
L 584 1831 
Q 622 2206 725 2503 
Q 828 2800 998 3011 
Q 1169 3222 1412 3333 
Q 1656 3444 1975 3444 
Q 2294 3444 2541 3320 
Q 2788 3197 2956 2969 
Q 3125 2741 3211 2423 
Q 3297 2106 3297 1719 
z
M 2716 1653 
L 2716 1719 
Q 2716 1972 2662 2195 
Q 2609 2419 2498 2589 
Q 2388 2759 2216 2857 
Q 2044 2956 1806 2956 
Q 1588 2956 1427 2881 
Q 1266 2806 1153 2679 
Q 1041 2553 970 2392 
Q 900 2231 866 2059 
L 866 1250 
Q 928 1031 1040 839 
Q 1153 647 1340 530 
Q 1528 413 1813 413 
Q 2047 413 2217 511 
Q 2388 609 2498 781 
Q 2609 953 2662 1176 
Q 2716 1400 2716 1653 
z
" transform="scale(0.015625)"/>
       <path id="Roboto-Regular-61" d="M 2434 578 
L 2434 2319 
Q 2434 2519 2354 2667 
Q 2275 2816 2115 2897 
Q 1956 2978 1722 2978 
Q 1503 2978 1339 2903 
Q 1175 2828 1083 2706 
Q 991 2584 991 2444 
L 413 2444 
Q 413 2625 506 2803 
Q 600 2981 776 3126 
Q 953 3272 1201 3358 
Q 1450 3444 1756 3444 
Q 2125 3444 2408 3319 
Q 2691 3194 2852 2942 
Q 3013 2691 3013 2313 
L 3013 738 
Q 3013 569 3042 378 
Q 3072 188 3131 50 
L 3131 0 
L 2528 0 
Q 2484 100 2459 267 
Q 2434 434 2434 578 
z
M 2534 2050 
L 2541 1644 
L 1956 1644 
Q 1709 1644 1515 1605 
Q 1322 1566 1190 1487 
Q 1059 1409 990 1292 
Q 922 1175 922 1019 
Q 922 859 994 728 
Q 1066 597 1211 520 
Q 1356 444 1569 444 
Q 1834 444 2037 556 
Q 2241 669 2361 831 
Q 2481 994 2491 1147 
L 2738 869 
Q 2716 738 2619 578 
Q 2522 419 2361 273 
Q 2200 128 1979 32 
Q 1759 -63 1484 -63 
Q 1141 -63 883 71 
Q 625 206 483 432 
Q 341 659 341 941 
Q 341 1213 447 1420 
Q 553 1628 753 1767 
Q 953 1906 1234 1978 
Q 1516 2050 1863 2050 
L 2534 2050 
z
" transform="scale(0.015625)"/>
       <path id="Roboto-Regular-6c" d="M 1069 4800 
L 1069 0 
L 488 0 
L 488 4800 
L 1069 4800 
z
" transform="scale(0.015625)"/>
       <path id="Roboto-Regular-20" transform="scale(0.015625)"/>
       <path id="Roboto-Regular-43" d="M 3275 1447 
L 3875 1447 
Q 3828 1016 3628 675 
Q 3428 334 3062 135 
Q 2697 -63 2150 -63 
Q 1750 -63 1423 87 
Q 1097 238 862 514 
Q 628 791 501 1180 
Q 375 1569 375 2047 
L 375 2500 
Q 375 2978 501 3367 
Q 628 3756 867 4034 
Q 1106 4313 1443 4463 
Q 1781 4613 2203 4613 
Q 2719 4613 3075 4419 
Q 3431 4225 3629 3883 
Q 3828 3541 3875 3091 
L 3275 3091 
Q 3231 3409 3112 3639 
Q 2994 3869 2775 3994 
Q 2556 4119 2203 4119 
Q 1900 4119 1670 4003 
Q 1441 3888 1286 3675 
Q 1131 3463 1053 3166 
Q 975 2869 975 2506 
L 975 2047 
Q 975 1713 1045 1419 
Q 1116 1125 1259 903 
Q 1403 681 1625 554 
Q 1847 428 2150 428 
Q 2534 428 2762 550 
Q 2991 672 3108 900 
Q 3225 1128 3275 1447 
z
" transform="scale(0.015625)"/>
       <path id="Roboto-Regular-6f" d="M 288 1653 
L 288 1725 
Q 288 2091 394 2405 
Q 500 2719 700 2951 
Q 900 3184 1184 3314 
Q 1469 3444 1822 3444 
Q 2178 3444 2464 3314 
Q 2750 3184 2951 2951 
Q 3153 2719 3259 2405 
Q 3366 2091 3366 1725 
L 3366 1653 
Q 3366 1288 3259 975 
Q 3153 663 2951 430 
Q 2750 197 2467 67 
Q 2184 -63 1828 -63 
Q 1472 -63 1187 67 
Q 903 197 701 430 
Q 500 663 394 975 
Q 288 1288 288 1653 
z
M 866 1725 
L 866 1653 
Q 866 1400 925 1176 
Q 984 953 1104 781 
Q 1225 609 1406 511 
Q 1588 413 1828 413 
Q 2066 413 2245 511 
Q 2425 609 2544 781 
Q 2663 953 2723 1176 
Q 2784 1400 2784 1653 
L 2784 1725 
Q 2784 1975 2723 2198 
Q 2663 2422 2542 2595 
Q 2422 2769 2242 2869 
Q 2063 2969 1822 2969 
Q 1584 2969 1404 2869 
Q 1225 2769 1104 2595 
Q 984 2422 925 2198 
Q 866 1975 866 1725 
z
" transform="scale(0.015625)"/>
       <path id="Roboto-Regular-6d" d="M 1016 2709 
L 1016 0 
L 434 0 
L 434 3381 
L 984 3381 
L 1016 2709 
z
M 897 1819 
L 628 1828 
Q 631 2175 718 2470 
Q 806 2766 978 2984 
Q 1150 3203 1406 3323 
Q 1663 3444 2000 3444 
Q 2238 3444 2438 3376 
Q 2638 3309 2784 3165 
Q 2931 3022 3012 2797 
Q 3094 2572 3094 2253 
L 3094 0 
L 2516 0 
L 2516 2225 
Q 2516 2491 2427 2650 
Q 2338 2809 2175 2882 
Q 2013 2956 1794 2956 
Q 1538 2956 1366 2865 
Q 1194 2775 1091 2615 
Q 988 2456 942 2251 
Q 897 2047 897 1819 
z
M 3088 2138 
L 2700 2019 
Q 2703 2297 2792 2553 
Q 2881 2809 3051 3009 
Q 3222 3209 3472 3326 
Q 3722 3444 4044 3444 
Q 4316 3444 4527 3372 
Q 4738 3300 4883 3151 
Q 5028 3003 5103 2772 
Q 5178 2541 5178 2222 
L 5178 0 
L 4597 0 
L 4597 2228 
Q 4597 2513 4508 2670 
Q 4419 2828 4258 2892 
Q 4097 2956 3875 2956 
Q 3684 2956 3537 2890 
Q 3391 2825 3291 2711 
Q 3191 2597 3139 2450 
Q 3088 2303 3088 2138 
z
" transform="scale(0.015625)"/>
       <path id="Roboto-Regular-65" d="M 1844 -63 
Q 1491 -63 1205 57 
Q 919 178 714 397 
Q 509 616 400 916 
Q 291 1216 291 1572 
L 291 1703 
Q 291 2116 412 2439 
Q 534 2763 743 2988 
Q 953 3213 1218 3328 
Q 1484 3444 1769 3444 
Q 2131 3444 2395 3319 
Q 2659 3194 2828 2970 
Q 2997 2747 3078 2445 
Q 3159 2144 3159 1788 
L 3159 1528 
L 634 1528 
L 634 2000 
L 2581 2000 
L 2581 2044 
Q 2569 2269 2489 2481 
Q 2409 2694 2237 2831 
Q 2066 2969 1769 2969 
Q 1572 2969 1406 2886 
Q 1241 2803 1122 2640 
Q 1003 2478 937 2243 
Q 872 2009 872 1703 
L 872 1572 
Q 872 1331 939 1120 
Q 1006 909 1136 750 
Q 1266 591 1452 500 
Q 1638 409 1875 409 
Q 2181 409 2393 534 
Q 2606 659 2766 869 
L 3116 591 
Q 3006 425 2837 275 
Q 2669 125 2423 31 
Q 2178 -63 1844 -63 
z
" transform="scale(0.015625)"/>
       <path id="Roboto-Regular-74" d="M 1856 3381 
L 1856 2938 
L 28 2938 
L 28 3381 
L 1856 3381 
z
M 647 4203 
L 1225 4203 
L 1225 838 
Q 1225 666 1278 578 
Q 1331 491 1415 462 
Q 1500 434 1597 434 
Q 1669 434 1748 448 
Q 1828 463 1869 472 
L 1872 0 
Q 1803 -22 1692 -42 
Q 1581 -63 1425 -63 
Q 1213 -63 1034 21 
Q 856 106 751 304 
Q 647 503 647 841 
L 647 4203 
z
" transform="scale(0.015625)"/>
      </defs>
      <use xlink:href="#Roboto-Regular-50"/>
      <use xlink:href="#Roboto-Regular-72" transform="translate(63.085938 0)"/>
      <use xlink:href="#Roboto-Regular-69" transform="translate(96.972656 0)"/>
      <use xlink:href="#Roboto-Regular-6e" transform="translate(121.289062 0)"/>
      <use xlink:href="#Roboto-Regular-63" transform="translate(176.513672 0)"/>
      <use xlink:href="#Roboto-Regular-69" transform="translate(228.857422 0)"/>
      <use xlink:href="#Roboto-Regular-70" transform="translate(253.173828 0)"/>
      <use xlink:href="#Roboto-Regular-61" transform="translate(309.326172 0)"/>
      <use xlink:href="#Roboto-Regular-6c" transform="translate(363.720703 0)"/>
      <use xlink:href="#Roboto-Regular-20" transform="translate(388.037109 0)"/>
      <use xlink:href="#Roboto-Regular-43" transform="translate(412.841797 0)"/>
      <use xlink:href="#Roboto-Regular-6f" transform="translate(477.929688 0)"/>
      <use xlink:href="#Roboto-Regular-6d" transform="translate(534.960938 0)"/>
      <use xlink:href="#Roboto-Regular-70" transform="translate(622.65625 0)"/>
      <use xlink:href="#Roboto-Regular-6f" transform="translate(678.808594 0)"/>
      <use xlink:href="#Roboto-Regular-6e" transform="translate(735.839844 0)"/>
      <use xlink:href="#Roboto-Regular-65" transform="translate(791.064453 0)"/>
      <use xlink:href="#Roboto-Regular-6e" transform="translate(844.091797 0)"/>
      <use xlink:href="#Roboto-Regular-74" transform="translate(899.316406 0)"/>
     </g>
    </g>
   </g>
   <g id="matplotlib.axis_2">
    <g id="ytick_1">
     <g id="line2d_11">
      <defs>
       <path id="mece6f900ba" d="M 0 0 
L -3.5 0 
" style="stroke: #000000; stroke-width: 1.5"/>
      </defs>
      <g>
       <use xlink:href="#mece6f900ba" x="62.91875" y="229.48" style="stroke: #000000; stroke-width: 1.5"/>
      </g>
     </g>
     <g id="text_12">
      <!-- 0 -->
      <g transform="translate(46.92625 235.48) scale(0.16 -0.16)">
       <use xlink:href="#Roboto-Regular-30"/>
      </g>
     </g>
    </g>
    <g id="ytick_2">
     <g id="line2d_12">
      <g>
       <use xlink:href="#mece6f900ba" x="62.91875" y="173.430379" style="stroke: #000000; stroke-width: 1.5"/>
      </g>
     </g>
     <g id="text_13">
      <!-- 20 -->
      <g transform="translate(37.93375 179.430379) scale(0.16 -0.16)">
       <use xlink:href="#Roboto-Regular-32"/>
       <use xlink:href="#Roboto-Regular-30" transform="translate(56.201172 0)"/>
      </g>
     </g>
    </g>
    <g id="ytick_3">
     <g id="line2d_13">
      <g>
       <use xlink:href="#mece6f900ba" x="62.91875" y="117.380759" style="stroke: #000000; stroke-width: 1.5"/>
      </g>
     </g>
     <g id="text_14">
      <!-- 40 -->
      <g transform="translate(37.93375 123.380759) scale(0.16 -0.16)">
       <use xlink:href="#Roboto-Regular-34"/>
       <use xlink:href="#Roboto-Regular-30" transform="translate(56.201172 0)"/>
      </g>
     </g>
    </g>
    <g id="ytick_4">
     <g id="line2d_14">
      <g>
       <use xlink:href="#mece6f900ba" x="62.91875" y="61.331138" style="stroke: #000000; stroke-width: 1.5"/>
      </g>
     </g>
     <g id="text_15">
      <!-- 60 -->
      <g transform="translate(37.93375 67.331138) scale(0.16 -0.16)">
       <use xlink:href="#Roboto-Regular-36"/>
       <use xlink:href="#Roboto-Regular-30" transform="translate(56.201172 0)"/>
      </g>
     </g>
    </g>
    <g id="text_16">
     <!-- Variance Explained (%) -->
     <g transform="translate(30.26125 204.455) rotate(-90) scale(0.16 -0.16)">
      <defs>
       <path id="Roboto-Regular-56" d="M 1997 691 
L 3338 4550 
L 3991 4550 
L 2306 0 
L 1841 0 
L 1997 691 
z
M 744 4550 
L 2072 691 
L 2238 0 
L 1772 0 
L 91 4550 
L 744 4550 
z
" transform="scale(0.015625)"/>
       <path id="Roboto-Regular-45" d="M 3419 491 
L 3419 0 
L 1009 0 
L 1009 491 
L 3419 491 
z
M 1131 4550 
L 1131 0 
L 528 0 
L 528 4550 
L 1131 4550 
z
M 3100 2594 
L 3100 2103 
L 1009 2103 
L 1009 2594 
L 3100 2594 
z
M 3388 4550 
L 3388 4056 
L 1009 4056 
L 1009 4550 
L 3388 4550 
z
" transform="scale(0.015625)"/>
       <path id="Roboto-Regular-78" d="M 831 3381 
L 1572 2150 
L 2322 3381 
L 3000 3381 
L 1894 1713 
L 3034 0 
L 2366 0 
L 1584 1269 
L 803 0 
L 131 0 
L 1269 1713 
L 166 3381 
L 831 3381 
z
" transform="scale(0.015625)"/>
       <path id="Roboto-Regular-64" d="M 2572 656 
L 2572 4800 
L 3153 4800 
L 3153 0 
L 2622 0 
L 2572 656 
z
M 297 1653 
L 297 1719 
Q 297 2106 392 2423 
Q 488 2741 664 2969 
Q 841 3197 1086 3320 
Q 1331 3444 1634 3444 
Q 1953 3444 2192 3333 
Q 2431 3222 2598 3011 
Q 2766 2800 2862 2503 
Q 2959 2206 2997 1831 
L 2997 1544 
Q 2963 1172 2864 875 
Q 2766 578 2598 368 
Q 2431 159 2190 48 
Q 1950 -63 1628 -63 
Q 1331 -63 1086 65 
Q 841 194 664 425 
Q 488 656 392 970 
Q 297 1284 297 1653 
z
M 878 1719 
L 878 1653 
Q 878 1400 929 1178 
Q 981 956 1090 787 
Q 1200 619 1369 523 
Q 1538 428 1772 428 
Q 2059 428 2245 550 
Q 2431 672 2543 872 
Q 2656 1072 2719 1306 
L 2719 2059 
Q 2681 2231 2611 2392 
Q 2541 2553 2430 2679 
Q 2319 2806 2158 2881 
Q 1997 2956 1778 2956 
Q 1541 2956 1370 2857 
Q 1200 2759 1090 2589 
Q 981 2419 929 2195 
Q 878 1972 878 1719 
z
" transform="scale(0.015625)"/>
       <path id="Roboto-Regular-28" d="M 419 1819 
L 419 1850 
Q 419 2531 572 3082 
Q 725 3634 962 4050 
Q 1200 4466 1462 4739 
Q 1725 5013 1947 5134 
L 2069 4753 
Q 1884 4613 1695 4366 
Q 1506 4119 1348 3759 
Q 1191 3400 1094 2925 
Q 997 2450 997 1856 
L 997 1813 
Q 997 1219 1094 742 
Q 1191 266 1348 -96 
Q 1506 -459 1695 -714 
Q 1884 -969 2069 -1119 
L 1947 -1469 
Q 1725 -1347 1462 -1073 
Q 1200 -800 962 -386 
Q 725 28 572 581 
Q 419 1134 419 1819 
z
" transform="scale(0.015625)"/>
       <path id="Roboto-Regular-25" d="M 328 3434 
L 328 3675 
Q 328 3934 440 4146 
Q 553 4359 762 4487 
Q 972 4616 1259 4616 
Q 1553 4616 1761 4487 
Q 1969 4359 2081 4146 
Q 2194 3934 2194 3675 
L 2194 3434 
Q 2194 3181 2083 2968 
Q 1972 2756 1764 2628 
Q 1556 2500 1266 2500 
Q 975 2500 764 2628 
Q 553 2756 440 2968 
Q 328 3181 328 3434 
z
M 763 3675 
L 763 3434 
Q 763 3291 817 3162 
Q 872 3034 984 2954 
Q 1097 2875 1266 2875 
Q 1434 2875 1543 2954 
Q 1653 3034 1706 3162 
Q 1759 3291 1759 3434 
L 1759 3675 
Q 1759 3822 1704 3951 
Q 1650 4081 1539 4161 
Q 1428 4241 1259 4241 
Q 1094 4241 983 4161 
Q 872 4081 817 3951 
Q 763 3822 763 3675 
z
M 2544 872 
L 2544 1116 
Q 2544 1372 2656 1584 
Q 2769 1797 2978 1925 
Q 3188 2053 3475 2053 
Q 3769 2053 3976 1925 
Q 4184 1797 4296 1584 
Q 4409 1372 4409 1116 
L 4409 872 
Q 4409 616 4298 403 
Q 4188 191 3980 62 
Q 3772 -66 3481 -66 
Q 3191 -66 2981 62 
Q 2772 191 2658 403 
Q 2544 616 2544 872 
z
M 2978 1116 
L 2978 872 
Q 2978 728 3033 598 
Q 3088 469 3200 389 
Q 3313 309 3481 309 
Q 3650 309 3761 389 
Q 3872 469 3925 597 
Q 3978 725 3978 872 
L 3978 1116 
Q 3978 1263 3923 1391 
Q 3869 1519 3758 1598 
Q 3647 1678 3475 1678 
Q 3309 1678 3198 1598 
Q 3088 1519 3033 1391 
Q 2978 1263 2978 1116 
z
M 3619 3903 
L 1397 347 
L 1072 553 
L 3294 4109 
L 3619 3903 
z
" transform="scale(0.015625)"/>
       <path id="Roboto-Regular-29" d="M 1772 1850 
L 1772 1819 
Q 1772 1134 1619 581 
Q 1466 28 1228 -386 
Q 991 -800 728 -1073 
Q 466 -1347 244 -1469 
L 122 -1119 
Q 306 -978 493 -726 
Q 681 -475 840 -108 
Q 1000 259 1097 739 
Q 1194 1219 1194 1813 
L 1194 1856 
Q 1194 2450 1091 2929 
Q 988 3409 823 3775 
Q 659 4141 473 4392 
Q 288 4644 122 4781 
L 244 5134 
Q 466 5013 728 4739 
Q 991 4466 1228 4050 
Q 1466 3634 1619 3082 
Q 1772 2531 1772 1850 
z
" transform="scale(0.015625)"/>
      </defs>
      <use xlink:href="#Roboto-Regular-56"/>
      <use xlink:href="#Roboto-Regular-61" transform="translate(63.671875 0)"/>
      <use xlink:href="#Roboto-Regular-72" transform="translate(118.066406 0)"/>
      <use xlink:href="#Roboto-Regular-69" transform="translate(151.953125 0)"/>
      <use xlink:href="#Roboto-Regular-61" transform="translate(176.269531 0)"/>
      <use xlink:href="#Roboto-Regular-6e" transform="translate(230.664062 0)"/>
      <use xlink:href="#Roboto-Regular-63" transform="translate(285.888672 0)"/>
      <use xlink:href="#Roboto-Regular-65" transform="translate(338.232422 0)"/>
      <use xlink:href="#Roboto-Regular-20" transform="translate(391.259766 0)"/>
      <use xlink:href="#Roboto-Regular-45" transform="translate(416.064453 0)"/>
      <use xlink:href="#Roboto-Regular-78" transform="translate(472.900391 0)"/>
      <use xlink:href="#Roboto-Regular-70" transform="translate(522.509766 0)"/>
      <use xlink:href="#Roboto-Regular-6c" transform="translate(578.662109 0)"/>
      <use xlink:href="#Roboto-Regular-61" transform="translate(602.978516 0)"/>
      <use xlink:href="#Roboto-Regular-69" transform="translate(657.373047 0)"/>
      <use xlink:href="#Roboto-Regular-6e" transform="translate(681.689453 0)"/>
      <use xlink:href="#Roboto-Regular-65" transform="translate(736.914062 0)"/>
      <use xlink:href="#Roboto-Regular-64" transform="translate(789.941406 0)"/>
      <use xlink:href="#Roboto-Regular-20" transform="translate(846.337891 0)"/>
      <use xlink:href="#Roboto-Regular-28" transform="translate(871.142578 0)"/>
      <use xlink:href="#Roboto-Regular-25" transform="translate(905.371094 0)"/>
      <use xlink:href="#Roboto-Regular-29" transform="translate(978.613281 0)"/>
     </g>
    </g>
   </g>
   <g id="patch_13">
    <path d="M 62.91875 229.48 
L 62.91875 17.28 
" style="fill: none; stroke: #000000; stroke-width: 1.5; stroke-linejoin: miter; stroke-linecap: square"/>
   </g>
   <g id="patch_14">
    <path d="M 414.72 229.48 
L 414.72 17.28 
" style="fill: none; stroke: #000000; stroke-width: 1.5; stroke-linejoin: miter; stroke-linecap: square"/>
   </g>
   <g id="patch_15">
    <path d="M 62.91875 229.48 
L 414.72 229.48 
" style="fill: none; stroke: #000000; stroke-width: 1.5; stroke-linejoin: miter; stroke-linecap: square"/>
   </g>
   <g id="patch_16">
    <path d="M 62.91875 17.28 
L 414.72 17.28 
" style="fill: none; stroke: #000000; stroke-width: 1.5; stroke-linejoin: miter; stroke-linecap: square"/>
   </g>
   <g id="text_17">
    <!-- 68.8% -->
    <g transform="translate(77.210675 34.336534) scale(0.11 -0.11)">
     <defs>
      <path id="Roboto-Regular-2e" d="M 450 306 
Q 450 453 542 554 
Q 634 656 809 656 
Q 984 656 1076 554 
Q 1169 453 1169 306 
Q 1169 163 1076 62 
Q 984 -38 809 -38 
Q 634 -38 542 62 
Q 450 163 450 306 
z
" transform="scale(0.015625)"/>
     </defs>
     <use xlink:href="#Roboto-Regular-36"/>
     <use xlink:href="#Roboto-Regular-38" transform="translate(56.201172 0)"/>
     <use xlink:href="#Roboto-Regular-2e" transform="translate(112.402344 0)"/>
     <use xlink:href="#Roboto-Regular-38" transform="translate(138.769531 0)"/>
     <use xlink:href="#Roboto-Regular-25" transform="translate(194.970703 0)"/>
    </g>
   </g>
   <g id="text_18">
    <!-- 8.2% -->
    <g transform="translate(112.936471 204.347123) scale(0.11 -0.11)">
     <use xlink:href="#Roboto-Regular-38"/>
     <use xlink:href="#Roboto-Regular-2e" transform="translate(56.201172 0)"/>
     <use xlink:href="#Roboto-Regular-32" transform="translate(82.568359 0)"/>
     <use xlink:href="#Roboto-Regular-25" transform="translate(138.769531 0)"/>
    </g>
   </g>
   <g id="text_19">
    <!-- 6.4% -->
    <g transform="translate(145.571095 209.34848) scale(0.11 -0.11)">
     <use xlink:href="#Roboto-Regular-36"/>
     <use xlink:href="#Roboto-Regular-2e" transform="translate(56.201172 0)"/>
     <use xlink:href="#Roboto-Regular-34" transform="translate(82.568359 0)"/>
     <use xlink:href="#Roboto-Regular-25" transform="translate(138.769531 0)"/>
    </g>
   </g>
   <g id="text_20">
    <!-- 5.0% -->
    <g transform="translate(178.20572 213.168696) scale(0.11 -0.11)">
     <use xlink:href="#Roboto-Regular-35"/>
     <use xlink:href="#Roboto-Regular-2e" transform="translate(56.201172 0)"/>
     <use xlink:href="#Roboto-Regular-30" transform="translate(82.568359 0)"/>
     <use xlink:href="#Roboto-Regular-25" transform="translate(138.769531 0)"/>
    </g>
   </g>
   <g id="text_21">
    <!-- 4.2% -->
    <g transform="translate(210.840344 215.610598) scale(0.11 -0.11)">
     <use xlink:href="#Roboto-Regular-34"/>
     <use xlink:href="#Roboto-Regular-2e" transform="translate(56.201172 0)"/>
     <use xlink:href="#Roboto-Regular-32" transform="translate(82.568359 0)"/>
     <use xlink:href="#Roboto-Regular-25" transform="translate(138.769531 0)"/>
    </g>
   </g>
   <g id="text_22">
    <!-- 3.2% -->
    <g transform="translate(243.474968 218.167042) scale(0.11 -0.11)">
     <use xlink:href="#Roboto-Regular-33"/>
     <use xlink:href="#Roboto-Regular-2e" transform="translate(56.201172 0)"/>
     <use xlink:href="#Roboto-Regular-32" transform="translate(82.568359 0)"/>
     <use xlink:href="#Roboto-Regular-25" transform="translate(138.769531 0)"/>
    </g>
   </g>
   <g id="text_23">
    <!-- 1.9% -->
    <g transform="translate(276.109593 222.052151) scale(0.11 -0.11)">
     <use xlink:href="#Roboto-Regular-31"/>
     <use xlink:href="#Roboto-Regular-2e" transform="translate(56.201172 0)"/>
     <use xlink:href="#Roboto-Regular-39" transform="translate(82.568359 0)"/>
     <use xlink:href="#Roboto-Regular-25" transform="translate(138.769531 0)"/>
    </g>
   </g>
   <g id="text_24">
    <!-- 1.1% -->
    <g transform="translate(308.744217 224.302787) scale(0.11 -0.11)">
     <use xlink:href="#Roboto-Regular-31"/>
     <use xlink:href="#Roboto-Regular-2e" transform="translate(56.201172 0)"/>
     <use xlink:href="#Roboto-Regular-31" transform="translate(82.568359 0)"/>
     <use xlink:href="#Roboto-Regular-25" transform="translate(138.769531 0)"/>
    </g>
   </g>
   <g id="text_25">
    <!-- 0.6% -->
    <g transform="translate(341.378841 225.579029) scale(0.11 -0.11)">
     <use xlink:href="#Roboto-Regular-30"/>
     <use xlink:href="#Roboto-Regular-2e" transform="translate(56.201172 0)"/>
     <use xlink:href="#Roboto-Regular-36" transform="translate(82.568359 0)"/>
     <use xlink:href="#Roboto-Regular-25" transform="translate(138.769531 0)"/>
    </g>
   </g>
   <g id="text_26">
    <!-- 0.3% -->
    <g transform="translate(374.013466 226.472943) scale(0.11 -0.11)">
     <use xlink:href="#Roboto-Regular-30"/>
     <use xlink:href="#Roboto-Regular-2e" transform="translate(56.201172 0)"/>
     <use xlink:href="#Roboto-Regular-33" transform="translate(82.568359 0)"/>
     <use xlink:href="#Roboto-Regular-25" transform="translate(138.769531 0)"/>
    </g>
   </g>
  </g>
 </g>
 <defs>
  <clipPath id="p31b62a1eb8">
   <rect x="62.91875" y="17.28" width="351.80125" height="212.2"/>
  </clipPath>
 </defs>
</svg>
