<?xml version="1.0" encoding="utf-8" standalone="no"?>
<!DOCTYPE svg PUBLIC "-//W3C//DTD SVG 1.1//EN"
  "http://www.w3.org/Graphics/SVG/1.1/DTD/svg11.dtd">
<svg xmlns:xlink="http://www.w3.org/1999/xlink" width="288pt" height="432pt" viewBox="0 0 288 432" xmlns="http://www.w3.org/2000/svg" version="1.1">
 <metadata>
  <rdf:RDF xmlns:dc="http://purl.org/dc/elements/1.1/" xmlns:cc="http://creativecommons.org/ns#" xmlns:rdf="http://www.w3.org/1999/02/22-rdf-syntax-ns#">
   <cc:Work>
    <dc:type rdf:resource="http://purl.org/dc/dcmitype/StillImage"/>
    <dc:date>2025-05-22T15:27:50.562647</dc:date>
    <dc:format>image/svg+xml</dc:format>
    <dc:creator>
     <cc:Agent>
      <dc:title>Matplotlib v3.10.3, https://matplotlib.org/</dc:title>
     </cc:Agent>
    </dc:creator>
   </cc:Work>
  </rdf:RDF>
 </metadata>
 <defs>
  <style type="text/css">*{stroke-linejoin: round; stroke-linecap: butt}</style>
 </defs>
 <g id="figure_1">
  <g id="patch_1">
   <path d="M 0 432 
L 288 432 
L 288 0 
L 0 0 
z
" style="fill: #ffffff"/>
  </g>
  <g id="axes_1">
   <g id="patch_2">
    <path d="M 107.21 373.48 
L 270.72 373.48 
L 270.72 17.28 
L 107.21 17.28 
z
" style="fill: #ffffff"/>
   </g>
   <g id="patch_3">
    <path d="M 188.670998 33.470909 
L 262.385216 33.470909 
L 262.385216 50.974595 
L 188.670998 50.974595 
z
" clip-path="url(#p3eb93f2078)" style="fill: #c44e52; stroke: #000000; stroke-width: 1.5; stroke-linejoin: miter"/>
   </g>
   <g id="patch_4">
    <path d="M 188.670998 55.350516 
L 263.003999 55.350516 
L 263.003999 72.854201 
L 188.670998 72.854201 
z
" clip-path="url(#p3eb93f2078)" style="fill: #c44e52; stroke: #000000; stroke-width: 1.5; stroke-linejoin: miter"/>
   </g>
   <g id="patch_5">
    <path d="M 188.670998 77.230123 
L 263.219114 77.230123 
L 263.219114 94.733808 
L 188.670998 94.733808 
z
" clip-path="url(#p3eb93f2078)" style="fill: #c44e52; stroke: #000000; stroke-width: 1.5; stroke-linejoin: miter"/>
   </g>
   <g id="patch_6">
    <path d="M 188.670998 99.10973 
L 263.287727 99.10973 
L 263.287727 116.613415 
L 188.670998 116.613415 
z
" clip-path="url(#p3eb93f2078)" style="fill: #c44e52; stroke: #000000; stroke-width: 1.5; stroke-linejoin: miter"/>
   </g>
   <g id="patch_7">
    <path d="M 188.670998 120.989337 
L 263.282514 120.989337 
L 263.282514 138.493022 
L 188.670998 138.493022 
z
" clip-path="url(#p3eb93f2078)" style="fill: #c44e52; stroke: #000000; stroke-width: 1.5; stroke-linejoin: miter"/>
   </g>
   <g id="patch_8">
    <path d="M 188.670998 142.868943 
L 263.144893 142.868943 
L 263.144893 160.372629 
L 188.670998 160.372629 
z
" clip-path="url(#p3eb93f2078)" style="fill: #c44e52; stroke: #000000; stroke-width: 1.5; stroke-linejoin: miter"/>
   </g>
   <g id="patch_9">
    <path d="M 188.670998 164.74855 
L 114.642273 164.74855 
L 114.642273 182.252236 
L 188.670998 182.252236 
z
" clip-path="url(#p3eb93f2078)" style="fill: #4c72b0; stroke: #000000; stroke-width: 1.5; stroke-linejoin: miter"/>
   </g>
   <g id="patch_10">
    <path d="M 188.670998 186.628157 
L 126.175304 186.628157 
L 126.175304 204.131843 
L 188.670998 204.131843 
z
" clip-path="url(#p3eb93f2078)" style="fill: #4c72b0; stroke: #000000; stroke-width: 1.5; stroke-linejoin: miter"/>
   </g>
   <g id="patch_11">
    <path d="M 188.670998 208.507764 
L 116.134493 208.507764 
L 116.134493 226.01145 
L 188.670998 226.01145 
z
" clip-path="url(#p3eb93f2078)" style="fill: #4c72b0; stroke: #000000; stroke-width: 1.5; stroke-linejoin: miter"/>
   </g>
   <g id="patch_12">
    <path d="M 188.670998 230.387371 
L 126.526333 230.387371 
L 126.526333 247.891057 
L 188.670998 247.891057 
z
" clip-path="url(#p3eb93f2078)" style="fill: #4c72b0; stroke: #000000; stroke-width: 1.5; stroke-linejoin: miter"/>
   </g>
   <g id="patch_13">
    <path d="M 188.670998 252.266978 
L 123.900461 252.266978 
L 123.900461 269.770663 
L 188.670998 269.770663 
z
" clip-path="url(#p3eb93f2078)" style="fill: #4c72b0; stroke: #000000; stroke-width: 1.5; stroke-linejoin: miter"/>
   </g>
   <g id="patch_14">
    <path d="M 188.670998 274.146585 
L 173.077575 274.146585 
L 173.077575 291.65027 
L 188.670998 291.65027 
z
" clip-path="url(#p3eb93f2078)" style="fill: #4c72b0; stroke: #000000; stroke-width: 1.5; stroke-linejoin: miter"/>
   </g>
   <g id="patch_15">
    <path d="M 188.670998 296.026192 
L 147.046249 296.026192 
L 147.046249 313.529877 
L 188.670998 313.529877 
z
" clip-path="url(#p3eb93f2078)" style="fill: #4c72b0; stroke: #000000; stroke-width: 1.5; stroke-linejoin: miter"/>
   </g>
   <g id="patch_16">
    <path d="M 188.670998 317.905799 
L 152.457877 317.905799 
L 152.457877 335.409484 
L 188.670998 335.409484 
z
" clip-path="url(#p3eb93f2078)" style="fill: #4c72b0; stroke: #000000; stroke-width: 1.5; stroke-linejoin: miter"/>
   </g>
   <g id="patch_17">
    <path d="M 188.670998 339.785405 
L 167.840814 339.785405 
L 167.840814 357.289091 
L 188.670998 357.289091 
z
" clip-path="url(#p3eb93f2078)" style="fill: #4c72b0; stroke: #000000; stroke-width: 1.5; stroke-linejoin: miter"/>
   </g>
   <g id="matplotlib.axis_1">
    <g id="xtick_1">
     <g id="line2d_1">
      <defs>
       <path id="m3600495b49" d="M 0 0 
L 0 3.5 
" style="stroke: #000000; stroke-width: 1.5"/>
      </defs>
      <g>
       <use xlink:href="#m3600495b49" x="127.626317" y="373.48" style="stroke: #000000; stroke-width: 1.5"/>
      </g>
     </g>
     <g id="text_1">
      <!-- −0.25 -->
      <g transform="translate(107.453817 392.48) scale(0.16 -0.16)">
       <defs>
        <path id="Roboto-Regular-2212" d="M 3134 2509 
L 3134 2034 
L 525 2034 
L 525 2509 
L 3134 2509 
z
" transform="scale(0.015625)"/>
        <path id="Roboto-Regular-30" d="M 3234 2638 
L 3234 1944 
Q 3234 1384 3134 1000 
Q 3034 616 2846 381 
Q 2659 147 2395 42 
Q 2131 -63 1800 -63 
Q 1538 -63 1316 3 
Q 1094 69 917 214 
Q 741 359 616 593 
Q 491 828 425 1162 
Q 359 1497 359 1944 
L 359 2638 
Q 359 3197 461 3575 
Q 563 3953 750 4183 
Q 938 4413 1202 4513 
Q 1466 4613 1794 4613 
Q 2059 4613 2282 4548 
Q 2506 4484 2681 4345 
Q 2856 4206 2979 3976 
Q 3103 3747 3168 3415 
Q 3234 3084 3234 2638 
z
M 2653 1850 
L 2653 2734 
Q 2653 3041 2617 3273 
Q 2581 3506 2512 3672 
Q 2444 3838 2339 3941 
Q 2234 4044 2098 4092 
Q 1963 4141 1794 4141 
Q 1588 4141 1428 4064 
Q 1269 3988 1161 3822 
Q 1053 3656 997 3387 
Q 941 3119 941 2734 
L 941 1850 
Q 941 1544 977 1309 
Q 1013 1075 1084 904 
Q 1156 734 1259 625 
Q 1363 516 1498 464 
Q 1634 413 1800 413 
Q 2013 413 2172 494 
Q 2331 575 2439 748 
Q 2547 922 2600 1195 
Q 2653 1469 2653 1850 
z
" transform="scale(0.015625)"/>
        <path id="Roboto-Regular-2e" d="M 450 306 
Q 450 453 542 554 
Q 634 656 809 656 
Q 984 656 1076 554 
Q 1169 453 1169 306 
Q 1169 163 1076 62 
Q 984 -38 809 -38 
Q 634 -38 542 62 
Q 450 163 450 306 
z
" transform="scale(0.015625)"/>
        <path id="Roboto-Regular-32" d="M 3359 475 
L 3359 0 
L 381 0 
L 381 416 
L 1872 2075 
Q 2147 2381 2298 2595 
Q 2450 2809 2511 2979 
Q 2572 3150 2572 3328 
Q 2572 3553 2480 3736 
Q 2388 3919 2209 4028 
Q 2031 4138 1778 4138 
Q 1475 4138 1273 4020 
Q 1072 3903 972 3693 
Q 872 3484 872 3213 
L 294 3213 
Q 294 3597 462 3915 
Q 631 4234 962 4423 
Q 1294 4613 1778 4613 
Q 2209 4613 2515 4461 
Q 2822 4309 2986 4036 
Q 3150 3763 3150 3397 
Q 3150 3197 3083 2992 
Q 3016 2788 2898 2584 
Q 2781 2381 2626 2184 
Q 2472 1988 2297 1797 
L 1078 475 
L 3359 475 
z
" transform="scale(0.015625)"/>
        <path id="Roboto-Regular-35" d="M 1109 2166 
L 647 2284 
L 875 4550 
L 3209 4550 
L 3209 4016 
L 1366 4016 
L 1228 2778 
Q 1353 2850 1545 2912 
Q 1738 2975 1988 2975 
Q 2303 2975 2553 2867 
Q 2803 2759 2979 2559 
Q 3156 2359 3250 2078 
Q 3344 1797 3344 1450 
Q 3344 1122 3255 847 
Q 3166 572 2987 367 
Q 2809 163 2539 50 
Q 2269 -63 1903 -63 
Q 1628 -63 1383 14 
Q 1138 91 945 248 
Q 753 406 633 642 
Q 513 878 481 1197 
L 1031 1197 
Q 1069 941 1181 766 
Q 1294 591 1476 502 
Q 1659 413 1903 413 
Q 2109 413 2268 484 
Q 2428 556 2537 690 
Q 2647 825 2705 1015 
Q 2763 1206 2763 1444 
Q 2763 1659 2703 1843 
Q 2644 2028 2526 2165 
Q 2409 2303 2240 2379 
Q 2072 2456 1853 2456 
Q 1563 2456 1414 2378 
Q 1266 2300 1109 2166 
z
" transform="scale(0.015625)"/>
       </defs>
       <use xlink:href="#Roboto-Regular-2212"/>
       <use xlink:href="#Roboto-Regular-30" transform="translate(57.177734 0)"/>
       <use xlink:href="#Roboto-Regular-2e" transform="translate(113.378906 0)"/>
       <use xlink:href="#Roboto-Regular-32" transform="translate(139.746094 0)"/>
       <use xlink:href="#Roboto-Regular-35" transform="translate(195.947266 0)"/>
      </g>
     </g>
    </g>
    <g id="xtick_2">
     <g id="line2d_2">
      <g>
       <use xlink:href="#m3600495b49" x="188.670998" y="373.48" style="stroke: #000000; stroke-width: 1.5"/>
      </g>
     </g>
     <g id="text_2">
      <!-- 0.00 -->
      <g transform="translate(173.072248 392.48) scale(0.16 -0.16)">
       <use xlink:href="#Roboto-Regular-30"/>
       <use xlink:href="#Roboto-Regular-2e" transform="translate(56.201172 0)"/>
       <use xlink:href="#Roboto-Regular-30" transform="translate(82.568359 0)"/>
       <use xlink:href="#Roboto-Regular-30" transform="translate(138.769531 0)"/>
      </g>
     </g>
    </g>
    <g id="xtick_3">
     <g id="line2d_3">
      <g>
       <use xlink:href="#m3600495b49" x="249.715679" y="373.48" style="stroke: #000000; stroke-width: 1.5"/>
      </g>
     </g>
     <g id="text_3">
      <!-- 0.25 -->
      <g transform="translate(234.116929 392.48) scale(0.16 -0.16)">
       <use xlink:href="#Roboto-Regular-30"/>
       <use xlink:href="#Roboto-Regular-2e" transform="translate(56.201172 0)"/>
       <use xlink:href="#Roboto-Regular-32" transform="translate(82.568359 0)"/>
       <use xlink:href="#Roboto-Regular-35" transform="translate(138.769531 0)"/>
      </g>
     </g>
    </g>
    <g id="text_4">
     <!-- Loadings on PC1 -->
     <g transform="translate(128.54625 411.73) scale(0.16 -0.16)">
      <defs>
       <path id="Roboto-Regular-4c" d="M 3288 491 
L 3288 0 
L 1013 0 
L 1013 491 
L 3288 491 
z
M 1131 4550 
L 1131 0 
L 528 0 
L 528 4550 
L 1131 4550 
z
" transform="scale(0.015625)"/>
       <path id="Roboto-Regular-6f" d="M 288 1653 
L 288 1725 
Q 288 2091 394 2405 
Q 500 2719 700 2951 
Q 900 3184 1184 3314 
Q 1469 3444 1822 3444 
Q 2178 3444 2464 3314 
Q 2750 3184 2951 2951 
Q 3153 2719 3259 2405 
Q 3366 2091 3366 1725 
L 3366 1653 
Q 3366 1288 3259 975 
Q 3153 663 2951 430 
Q 2750 197 2467 67 
Q 2184 -63 1828 -63 
Q 1472 -63 1187 67 
Q 903 197 701 430 
Q 500 663 394 975 
Q 288 1288 288 1653 
z
M 866 1725 
L 866 1653 
Q 866 1400 925 1176 
Q 984 953 1104 781 
Q 1225 609 1406 511 
Q 1588 413 1828 413 
Q 2066 413 2245 511 
Q 2425 609 2544 781 
Q 2663 953 2723 1176 
Q 2784 1400 2784 1653 
L 2784 1725 
Q 2784 1975 2723 2198 
Q 2663 2422 2542 2595 
Q 2422 2769 2242 2869 
Q 2063 2969 1822 2969 
Q 1584 2969 1404 2869 
Q 1225 2769 1104 2595 
Q 984 2422 925 2198 
Q 866 1975 866 1725 
z
" transform="scale(0.015625)"/>
       <path id="Roboto-Regular-61" d="M 2434 578 
L 2434 2319 
Q 2434 2519 2354 2667 
Q 2275 2816 2115 2897 
Q 1956 2978 1722 2978 
Q 1503 2978 1339 2903 
Q 1175 2828 1083 2706 
Q 991 2584 991 2444 
L 413 2444 
Q 413 2625 506 2803 
Q 600 2981 776 3126 
Q 953 3272 1201 3358 
Q 1450 3444 1756 3444 
Q 2125 3444 2408 3319 
Q 2691 3194 2852 2942 
Q 3013 2691 3013 2313 
L 3013 738 
Q 3013 569 3042 378 
Q 3072 188 3131 50 
L 3131 0 
L 2528 0 
Q 2484 100 2459 267 
Q 2434 434 2434 578 
z
M 2534 2050 
L 2541 1644 
L 1956 1644 
Q 1709 1644 1515 1605 
Q 1322 1566 1190 1487 
Q 1059 1409 990 1292 
Q 922 1175 922 1019 
Q 922 859 994 728 
Q 1066 597 1211 520 
Q 1356 444 1569 444 
Q 1834 444 2037 556 
Q 2241 669 2361 831 
Q 2481 994 2491 1147 
L 2738 869 
Q 2716 738 2619 578 
Q 2522 419 2361 273 
Q 2200 128 1979 32 
Q 1759 -63 1484 -63 
Q 1141 -63 883 71 
Q 625 206 483 432 
Q 341 659 341 941 
Q 341 1213 447 1420 
Q 553 1628 753 1767 
Q 953 1906 1234 1978 
Q 1516 2050 1863 2050 
L 2534 2050 
z
" transform="scale(0.015625)"/>
       <path id="Roboto-Regular-64" d="M 2572 656 
L 2572 4800 
L 3153 4800 
L 3153 0 
L 2622 0 
L 2572 656 
z
M 297 1653 
L 297 1719 
Q 297 2106 392 2423 
Q 488 2741 664 2969 
Q 841 3197 1086 3320 
Q 1331 3444 1634 3444 
Q 1953 3444 2192 3333 
Q 2431 3222 2598 3011 
Q 2766 2800 2862 2503 
Q 2959 2206 2997 1831 
L 2997 1544 
Q 2963 1172 2864 875 
Q 2766 578 2598 368 
Q 2431 159 2190 48 
Q 1950 -63 1628 -63 
Q 1331 -63 1086 65 
Q 841 194 664 425 
Q 488 656 392 970 
Q 297 1284 297 1653 
z
M 878 1719 
L 878 1653 
Q 878 1400 929 1178 
Q 981 956 1090 787 
Q 1200 619 1369 523 
Q 1538 428 1772 428 
Q 2059 428 2245 550 
Q 2431 672 2543 872 
Q 2656 1072 2719 1306 
L 2719 2059 
Q 2681 2231 2611 2392 
Q 2541 2553 2430 2679 
Q 2319 2806 2158 2881 
Q 1997 2956 1778 2956 
Q 1541 2956 1370 2857 
Q 1200 2759 1090 2589 
Q 981 2419 929 2195 
Q 878 1972 878 1719 
z
" transform="scale(0.015625)"/>
       <path id="Roboto-Regular-69" d="M 1069 3381 
L 1069 0 
L 488 0 
L 488 3381 
L 1069 3381 
z
M 444 4278 
Q 444 4419 530 4516 
Q 616 4613 784 4613 
Q 950 4613 1039 4516 
Q 1128 4419 1128 4278 
Q 1128 4144 1039 4048 
Q 950 3953 784 3953 
Q 616 3953 530 4048 
Q 444 4144 444 4278 
z
" transform="scale(0.015625)"/>
       <path id="Roboto-Regular-6e" d="M 1019 2659 
L 1019 0 
L 441 0 
L 441 3381 
L 988 3381 
L 1019 2659 
z
M 881 1819 
L 641 1828 
Q 644 2175 744 2470 
Q 844 2766 1025 2984 
Q 1206 3203 1457 3323 
Q 1709 3444 2016 3444 
Q 2266 3444 2466 3376 
Q 2666 3309 2808 3162 
Q 2950 3016 3025 2783 
Q 3100 2550 3100 2216 
L 3100 0 
L 2519 0 
L 2519 2222 
Q 2519 2488 2441 2648 
Q 2363 2809 2213 2882 
Q 2063 2956 1844 2956 
Q 1628 2956 1451 2865 
Q 1275 2775 1148 2615 
Q 1022 2456 951 2251 
Q 881 2047 881 1819 
z
" transform="scale(0.015625)"/>
       <path id="Roboto-Regular-67" d="M 2631 3381 
L 3156 3381 
L 3156 72 
Q 3156 -375 2975 -690 
Q 2794 -1006 2470 -1170 
Q 2147 -1334 1725 -1334 
Q 1550 -1334 1314 -1279 
Q 1078 -1225 851 -1095 
Q 625 -966 472 -747 
L 775 -403 
Q 988 -659 1220 -759 
Q 1453 -859 1681 -859 
Q 1956 -859 2156 -756 
Q 2356 -653 2467 -451 
Q 2578 -250 2578 44 
L 2578 2638 
L 2631 3381 
z
M 303 1653 
L 303 1719 
Q 303 2106 395 2423 
Q 488 2741 661 2969 
Q 834 3197 1081 3320 
Q 1328 3444 1638 3444 
Q 1956 3444 2195 3333 
Q 2434 3222 2601 3011 
Q 2769 2800 2866 2503 
Q 2963 2206 3000 1831 
L 3000 1544 
Q 2966 1172 2867 875 
Q 2769 578 2601 368 
Q 2434 159 2193 48 
Q 1953 -63 1631 -63 
Q 1328 -63 1083 65 
Q 838 194 663 425 
Q 488 656 395 970 
Q 303 1284 303 1653 
z
M 881 1719 
L 881 1653 
Q 881 1400 932 1178 
Q 984 956 1092 787 
Q 1200 619 1369 523 
Q 1538 428 1772 428 
Q 2059 428 2246 550 
Q 2434 672 2545 872 
Q 2656 1072 2719 1306 
L 2719 2059 
Q 2684 2231 2614 2392 
Q 2544 2553 2433 2679 
Q 2322 2806 2159 2881 
Q 1997 2956 1778 2956 
Q 1541 2956 1370 2857 
Q 1200 2759 1092 2589 
Q 984 2419 932 2195 
Q 881 1972 881 1719 
z
" transform="scale(0.015625)"/>
       <path id="Roboto-Regular-73" d="M 2409 897 
Q 2409 1022 2354 1130 
Q 2300 1238 2133 1327 
Q 1966 1416 1631 1481 
Q 1350 1541 1123 1622 
Q 897 1703 739 1818 
Q 581 1934 497 2090 
Q 413 2247 413 2456 
Q 413 2656 502 2834 
Q 591 3013 755 3150 
Q 919 3288 1150 3366 
Q 1381 3444 1666 3444 
Q 2072 3444 2359 3300 
Q 2647 3156 2800 2917 
Q 2953 2678 2953 2388 
L 2375 2388 
Q 2375 2528 2292 2661 
Q 2209 2794 2051 2881 
Q 1894 2969 1666 2969 
Q 1425 2969 1276 2895 
Q 1128 2822 1061 2709 
Q 994 2597 994 2472 
Q 994 2378 1026 2304 
Q 1059 2231 1143 2170 
Q 1228 2109 1381 2056 
Q 1534 2003 1772 1950 
Q 2188 1856 2456 1725 
Q 2725 1594 2856 1403 
Q 2988 1213 2988 941 
Q 2988 719 2895 534 
Q 2803 350 2629 217 
Q 2456 84 2217 10 
Q 1978 -63 1681 -63 
Q 1234 -63 925 96 
Q 616 256 456 509 
Q 297 763 297 1044 
L 878 1044 
Q 891 806 1016 667 
Q 1141 528 1322 470 
Q 1503 413 1681 413 
Q 1919 413 2080 475 
Q 2241 538 2325 647 
Q 2409 756 2409 897 
z
" transform="scale(0.015625)"/>
       <path id="Roboto-Regular-20" transform="scale(0.015625)"/>
       <path id="Roboto-Regular-50" d="M 2206 1784 
L 991 1784 
L 991 2275 
L 2206 2275 
Q 2559 2275 2778 2387 
Q 2997 2500 3098 2700 
Q 3200 2900 3200 3156 
Q 3200 3391 3098 3597 
Q 2997 3803 2778 3929 
Q 2559 4056 2206 4056 
L 1131 4056 
L 1131 0 
L 528 0 
L 528 4550 
L 2206 4550 
Q 2722 4550 3078 4372 
Q 3434 4194 3618 3880 
Q 3803 3566 3803 3163 
Q 3803 2725 3618 2415 
Q 3434 2106 3078 1945 
Q 2722 1784 2206 1784 
z
" transform="scale(0.015625)"/>
       <path id="Roboto-Regular-43" d="M 3275 1447 
L 3875 1447 
Q 3828 1016 3628 675 
Q 3428 334 3062 135 
Q 2697 -63 2150 -63 
Q 1750 -63 1423 87 
Q 1097 238 862 514 
Q 628 791 501 1180 
Q 375 1569 375 2047 
L 375 2500 
Q 375 2978 501 3367 
Q 628 3756 867 4034 
Q 1106 4313 1443 4463 
Q 1781 4613 2203 4613 
Q 2719 4613 3075 4419 
Q 3431 4225 3629 3883 
Q 3828 3541 3875 3091 
L 3275 3091 
Q 3231 3409 3112 3639 
Q 2994 3869 2775 3994 
Q 2556 4119 2203 4119 
Q 1900 4119 1670 4003 
Q 1441 3888 1286 3675 
Q 1131 3463 1053 3166 
Q 975 2869 975 2506 
L 975 2047 
Q 975 1713 1045 1419 
Q 1116 1125 1259 903 
Q 1403 681 1625 554 
Q 1847 428 2150 428 
Q 2534 428 2762 550 
Q 2991 672 3108 900 
Q 3225 1128 3275 1447 
z
" transform="scale(0.015625)"/>
       <path id="Roboto-Regular-31" d="M 2278 4575 
L 2278 0 
L 1700 0 
L 1700 3853 
L 534 3428 
L 534 3950 
L 2188 4575 
L 2278 4575 
z
" transform="scale(0.015625)"/>
      </defs>
      <use xlink:href="#Roboto-Regular-4c"/>
      <use xlink:href="#Roboto-Regular-6f" transform="translate(53.857422 0)"/>
      <use xlink:href="#Roboto-Regular-61" transform="translate(110.888672 0)"/>
      <use xlink:href="#Roboto-Regular-64" transform="translate(165.283203 0)"/>
      <use xlink:href="#Roboto-Regular-69" transform="translate(221.679688 0)"/>
      <use xlink:href="#Roboto-Regular-6e" transform="translate(245.996094 0)"/>
      <use xlink:href="#Roboto-Regular-67" transform="translate(301.220703 0)"/>
      <use xlink:href="#Roboto-Regular-73" transform="translate(357.373047 0)"/>
      <use xlink:href="#Roboto-Regular-20" transform="translate(408.984375 0)"/>
      <use xlink:href="#Roboto-Regular-6f" transform="translate(433.789062 0)"/>
      <use xlink:href="#Roboto-Regular-6e" transform="translate(490.820312 0)"/>
      <use xlink:href="#Roboto-Regular-20" transform="translate(546.044922 0)"/>
      <use xlink:href="#Roboto-Regular-50" transform="translate(570.849609 0)"/>
      <use xlink:href="#Roboto-Regular-43" transform="translate(633.935547 0)"/>
      <use xlink:href="#Roboto-Regular-31" transform="translate(699.023438 0)"/>
     </g>
    </g>
   </g>
   <g id="matplotlib.axis_2">
    <g id="ytick_1">
     <g id="line2d_4">
      <defs>
       <path id="m7fb0d36d51" d="M 0 0 
L -3.5 0 
" style="stroke: #000000; stroke-width: 1.5"/>
      </defs>
      <g>
       <use xlink:href="#m7fb0d36d51" x="107.21" y="42.222752" style="stroke: #000000; stroke-width: 1.5"/>
      </g>
     </g>
     <g id="text_5">
      <!-- miR141 -->
      <g transform="translate(45.45 48.222752) scale(0.16 -0.16)">
       <defs>
        <path id="Roboto-Regular-6d" d="M 1016 2709 
L 1016 0 
L 434 0 
L 434 3381 
L 984 3381 
L 1016 2709 
z
M 897 1819 
L 628 1828 
Q 631 2175 718 2470 
Q 806 2766 978 2984 
Q 1150 3203 1406 3323 
Q 1663 3444 2000 3444 
Q 2238 3444 2438 3376 
Q 2638 3309 2784 3165 
Q 2931 3022 3012 2797 
Q 3094 2572 3094 2253 
L 3094 0 
L 2516 0 
L 2516 2225 
Q 2516 2491 2427 2650 
Q 2338 2809 2175 2882 
Q 2013 2956 1794 2956 
Q 1538 2956 1366 2865 
Q 1194 2775 1091 2615 
Q 988 2456 942 2251 
Q 897 2047 897 1819 
z
M 3088 2138 
L 2700 2019 
Q 2703 2297 2792 2553 
Q 2881 2809 3051 3009 
Q 3222 3209 3472 3326 
Q 3722 3444 4044 3444 
Q 4316 3444 4527 3372 
Q 4738 3300 4883 3151 
Q 5028 3003 5103 2772 
Q 5178 2541 5178 2222 
L 5178 0 
L 4597 0 
L 4597 2228 
Q 4597 2513 4508 2670 
Q 4419 2828 4258 2892 
Q 4097 2956 3875 2956 
Q 3684 2956 3537 2890 
Q 3391 2825 3291 2711 
Q 3191 2597 3139 2450 
Q 3088 2303 3088 2138 
z
" transform="scale(0.015625)"/>
        <path id="Roboto-Regular-52" d="M 528 4550 
L 2034 4550 
Q 2547 4550 2901 4394 
Q 3256 4238 3442 3933 
Q 3628 3628 3628 3184 
Q 3628 2872 3501 2614 
Q 3375 2356 3139 2176 
Q 2903 1997 2575 1909 
L 2406 1844 
L 991 1844 
L 984 2334 
L 2053 2334 
Q 2378 2334 2593 2448 
Q 2809 2563 2918 2756 
Q 3028 2950 3028 3184 
Q 3028 3447 2925 3644 
Q 2822 3841 2601 3948 
Q 2381 4056 2034 4056 
L 1131 4056 
L 1131 0 
L 528 0 
L 528 4550 
z
M 3188 0 
L 2081 2063 
L 2709 2066 
L 3831 38 
L 3831 0 
L 3188 0 
z
" transform="scale(0.015625)"/>
        <path id="Roboto-Regular-34" d="M 3453 1531 
L 3453 1056 
L 166 1056 
L 166 1397 
L 2203 4550 
L 2675 4550 
L 2169 3638 
L 822 1531 
L 3453 1531 
z
M 2819 4550 
L 2819 0 
L 2241 0 
L 2241 4550 
L 2819 4550 
z
" transform="scale(0.015625)"/>
       </defs>
       <use xlink:href="#Roboto-Regular-6d"/>
       <use xlink:href="#Roboto-Regular-69" transform="translate(87.695312 0)"/>
       <use xlink:href="#Roboto-Regular-52" transform="translate(112.011719 0)"/>
       <use xlink:href="#Roboto-Regular-31" transform="translate(173.632812 0)"/>
       <use xlink:href="#Roboto-Regular-34" transform="translate(229.833984 0)"/>
       <use xlink:href="#Roboto-Regular-31" transform="translate(286.035156 0)"/>
      </g>
     </g>
    </g>
    <g id="ytick_2">
     <g id="line2d_5">
      <g>
       <use xlink:href="#m7fb0d36d51" x="107.21" y="64.102359" style="stroke: #000000; stroke-width: 1.5"/>
      </g>
     </g>
     <g id="text_6">
      <!-- miR101 -->
      <g transform="translate(45.45 70.102359) scale(0.16 -0.16)">
       <use xlink:href="#Roboto-Regular-6d"/>
       <use xlink:href="#Roboto-Regular-69" transform="translate(87.695312 0)"/>
       <use xlink:href="#Roboto-Regular-52" transform="translate(112.011719 0)"/>
       <use xlink:href="#Roboto-Regular-31" transform="translate(173.632812 0)"/>
       <use xlink:href="#Roboto-Regular-30" transform="translate(229.833984 0)"/>
       <use xlink:href="#Roboto-Regular-31" transform="translate(286.035156 0)"/>
      </g>
     </g>
    </g>
    <g id="ytick_3">
     <g id="line2d_6">
      <g>
       <use xlink:href="#m7fb0d36d51" x="107.21" y="85.981966" style="stroke: #000000; stroke-width: 1.5"/>
      </g>
     </g>
     <g id="text_7">
      <!-- miR34a -->
      <g transform="translate(45.74 91.981966) scale(0.16 -0.16)">
       <defs>
        <path id="Roboto-Regular-33" d="M 1222 2559 
L 1634 2559 
Q 1938 2559 2136 2661 
Q 2334 2763 2432 2939 
Q 2531 3116 2531 3338 
Q 2531 3600 2443 3778 
Q 2356 3956 2181 4047 
Q 2006 4138 1738 4138 
Q 1494 4138 1308 4042 
Q 1122 3947 1017 3772 
Q 913 3597 913 3359 
L 334 3359 
Q 334 3706 509 3990 
Q 684 4275 1001 4444 
Q 1319 4613 1738 4613 
Q 2150 4613 2459 4467 
Q 2769 4322 2941 4036 
Q 3113 3750 3113 3325 
Q 3113 3153 3033 2958 
Q 2953 2763 2786 2594 
Q 2619 2425 2353 2317 
Q 2088 2209 1716 2209 
L 1222 2209 
L 1222 2559 
z
M 1222 2084 
L 1222 2431 
L 1716 2431 
Q 2150 2431 2434 2328 
Q 2719 2225 2883 2053 
Q 3047 1881 3114 1676 
Q 3181 1472 3181 1269 
Q 3181 950 3073 703 
Q 2966 456 2770 284 
Q 2575 113 2312 25 
Q 2050 -63 1741 -63 
Q 1444 -63 1183 21 
Q 922 106 722 267 
Q 522 428 409 664 
Q 297 900 297 1203 
L 875 1203 
Q 875 966 979 787 
Q 1084 609 1279 511 
Q 1475 413 1741 413 
Q 2006 413 2198 505 
Q 2391 597 2495 784 
Q 2600 972 2600 1256 
Q 2600 1541 2481 1723 
Q 2363 1906 2145 1995 
Q 1928 2084 1634 2084 
L 1222 2084 
z
" transform="scale(0.015625)"/>
       </defs>
       <use xlink:href="#Roboto-Regular-6d"/>
       <use xlink:href="#Roboto-Regular-69" transform="translate(87.695312 0)"/>
       <use xlink:href="#Roboto-Regular-52" transform="translate(112.011719 0)"/>
       <use xlink:href="#Roboto-Regular-33" transform="translate(173.632812 0)"/>
       <use xlink:href="#Roboto-Regular-34" transform="translate(229.833984 0)"/>
       <use xlink:href="#Roboto-Regular-61" transform="translate(286.035156 0)"/>
      </g>
     </g>
    </g>
    <g id="ytick_4">
     <g id="line2d_7">
      <g>
       <use xlink:href="#m7fb0d36d51" x="107.21" y="107.861572" style="stroke: #000000; stroke-width: 1.5"/>
      </g>
     </g>
     <g id="text_8">
      <!-- miR200a -->
      <g transform="translate(36.7475 113.861572) scale(0.16 -0.16)">
       <use xlink:href="#Roboto-Regular-6d"/>
       <use xlink:href="#Roboto-Regular-69" transform="translate(87.695312 0)"/>
       <use xlink:href="#Roboto-Regular-52" transform="translate(112.011719 0)"/>
       <use xlink:href="#Roboto-Regular-32" transform="translate(173.632812 0)"/>
       <use xlink:href="#Roboto-Regular-30" transform="translate(229.833984 0)"/>
       <use xlink:href="#Roboto-Regular-30" transform="translate(286.035156 0)"/>
       <use xlink:href="#Roboto-Regular-61" transform="translate(342.236328 0)"/>
      </g>
     </g>
    </g>
    <g id="ytick_5">
     <g id="line2d_8">
      <g>
       <use xlink:href="#m7fb0d36d51" x="107.21" y="129.741179" style="stroke: #000000; stroke-width: 1.5"/>
      </g>
     </g>
     <g id="text_9">
      <!-- miR200c -->
      <g transform="translate(37.075 135.741179) scale(0.16 -0.16)">
       <defs>
        <path id="Roboto-Regular-63" d="M 1794 413 
Q 2000 413 2175 497 
Q 2350 581 2462 729 
Q 2575 878 2591 1069 
L 3141 1069 
Q 3125 769 2939 511 
Q 2753 253 2453 95 
Q 2153 -63 1794 -63 
Q 1413 -63 1130 71 
Q 847 206 661 440 
Q 475 675 383 979 
Q 291 1284 291 1625 
L 291 1756 
Q 291 2097 383 2401 
Q 475 2706 661 2940 
Q 847 3175 1130 3309 
Q 1413 3444 1794 3444 
Q 2191 3444 2487 3283 
Q 2784 3122 2954 2845 
Q 3125 2569 3141 2219 
L 2591 2219 
Q 2575 2428 2473 2597 
Q 2372 2766 2198 2867 
Q 2025 2969 1794 2969 
Q 1528 2969 1348 2864 
Q 1169 2759 1064 2582 
Q 959 2406 914 2192 
Q 869 1978 869 1756 
L 869 1625 
Q 869 1403 912 1187 
Q 956 972 1061 797 
Q 1166 622 1345 517 
Q 1525 413 1794 413 
z
" transform="scale(0.015625)"/>
       </defs>
       <use xlink:href="#Roboto-Regular-6d"/>
       <use xlink:href="#Roboto-Regular-69" transform="translate(87.695312 0)"/>
       <use xlink:href="#Roboto-Regular-52" transform="translate(112.011719 0)"/>
       <use xlink:href="#Roboto-Regular-32" transform="translate(173.632812 0)"/>
       <use xlink:href="#Roboto-Regular-30" transform="translate(229.833984 0)"/>
       <use xlink:href="#Roboto-Regular-30" transform="translate(286.035156 0)"/>
       <use xlink:href="#Roboto-Regular-63" transform="translate(342.236328 0)"/>
      </g>
     </g>
    </g>
    <g id="ytick_6">
     <g id="line2d_9">
      <g>
       <use xlink:href="#m7fb0d36d51" x="107.21" y="151.620786" style="stroke: #000000; stroke-width: 1.5"/>
      </g>
     </g>
     <g id="text_10">
      <!-- miR200b -->
      <g transform="translate(36.465 157.620786) scale(0.16 -0.16)">
       <defs>
        <path id="Roboto-Regular-62" d="M 438 4800 
L 1019 4800 
L 1019 656 
L 969 0 
L 438 0 
L 438 4800 
z
M 3303 1719 
L 3303 1653 
Q 3303 1284 3215 970 
Q 3128 656 2959 425 
Q 2791 194 2547 65 
Q 2303 -63 1988 -63 
Q 1666 -63 1423 48 
Q 1181 159 1015 368 
Q 850 578 751 875 
Q 653 1172 616 1544 
L 616 1831 
Q 653 2206 751 2503 
Q 850 2800 1015 3011 
Q 1181 3222 1422 3333 
Q 1663 3444 1981 3444 
Q 2300 3444 2547 3320 
Q 2794 3197 2961 2969 
Q 3128 2741 3215 2423 
Q 3303 2106 3303 1719 
z
M 2722 1653 
L 2722 1719 
Q 2722 1972 2675 2195 
Q 2628 2419 2525 2589 
Q 2422 2759 2253 2857 
Q 2084 2956 1838 2956 
Q 1619 2956 1458 2881 
Q 1297 2806 1184 2679 
Q 1072 2553 1001 2392 
Q 931 2231 897 2059 
L 897 1306 
Q 947 1088 1061 886 
Q 1175 684 1367 556 
Q 1559 428 1844 428 
Q 2078 428 2245 523 
Q 2413 619 2517 787 
Q 2622 956 2672 1178 
Q 2722 1400 2722 1653 
z
" transform="scale(0.015625)"/>
       </defs>
       <use xlink:href="#Roboto-Regular-6d"/>
       <use xlink:href="#Roboto-Regular-69" transform="translate(87.695312 0)"/>
       <use xlink:href="#Roboto-Regular-52" transform="translate(112.011719 0)"/>
       <use xlink:href="#Roboto-Regular-32" transform="translate(173.632812 0)"/>
       <use xlink:href="#Roboto-Regular-30" transform="translate(229.833984 0)"/>
       <use xlink:href="#Roboto-Regular-30" transform="translate(286.035156 0)"/>
       <use xlink:href="#Roboto-Regular-62" transform="translate(342.236328 0)"/>
      </g>
     </g>
    </g>
    <g id="ytick_7">
     <g id="line2d_10">
      <g>
       <use xlink:href="#m7fb0d36d51" x="107.21" y="173.500393" style="stroke: #000000; stroke-width: 1.5"/>
      </g>
     </g>
     <g id="text_11">
      <!-- GSC -->
      <g transform="translate(69.3975 179.500393) scale(0.16 -0.16)">
       <defs>
        <path id="Roboto-Regular-47" d="M 3891 2266 
L 3891 600 
Q 3806 475 3622 320 
Q 3438 166 3114 51 
Q 2791 -63 2281 -63 
Q 1866 -63 1517 82 
Q 1169 228 914 508 
Q 659 788 520 1189 
Q 381 1591 381 2100 
L 381 2453 
Q 381 2963 501 3363 
Q 622 3763 856 4042 
Q 1091 4322 1431 4467 
Q 1772 4613 2213 4613 
Q 2734 4613 3086 4433 
Q 3438 4253 3636 3937 
Q 3834 3622 3891 3219 
L 3288 3219 
Q 3247 3466 3126 3669 
Q 3006 3872 2784 3995 
Q 2563 4119 2213 4119 
Q 1897 4119 1665 4003 
Q 1434 3888 1284 3672 
Q 1134 3456 1061 3150 
Q 988 2844 988 2459 
L 988 2100 
Q 988 1706 1080 1397 
Q 1172 1088 1344 870 
Q 1516 653 1755 540 
Q 1994 428 2284 428 
Q 2606 428 2806 483 
Q 3006 538 3118 614 
Q 3231 691 3291 759 
L 3291 1778 
L 2238 1778 
L 2238 2266 
L 3891 2266 
z
" transform="scale(0.015625)"/>
        <path id="Roboto-Regular-53" d="M 2953 1150 
Q 2953 1309 2904 1432 
Q 2856 1556 2736 1656 
Q 2616 1756 2405 1847 
Q 2194 1938 1872 2031 
Q 1534 2131 1262 2254 
Q 991 2378 797 2537 
Q 603 2697 500 2903 
Q 397 3109 397 3375 
Q 397 3641 506 3866 
Q 616 4091 820 4258 
Q 1025 4425 1309 4519 
Q 1594 4613 1944 4613 
Q 2456 4613 2814 4417 
Q 3172 4222 3359 3908 
Q 3547 3594 3547 3238 
L 2947 3238 
Q 2947 3494 2837 3692 
Q 2728 3891 2506 4005 
Q 2284 4119 1944 4119 
Q 1622 4119 1412 4022 
Q 1203 3925 1101 3759 
Q 1000 3594 1000 3381 
Q 1000 3238 1061 3120 
Q 1122 3003 1251 2903 
Q 1381 2803 1582 2718 
Q 1784 2634 2066 2556 
Q 2453 2447 2734 2312 
Q 3016 2178 3198 2011 
Q 3381 1844 3470 1633 
Q 3559 1422 3559 1156 
Q 3559 878 3446 653 
Q 3334 428 3125 268 
Q 2916 109 2623 23 
Q 2331 -63 1972 -63 
Q 1656 -63 1351 25 
Q 1047 113 798 288 
Q 550 463 401 720 
Q 253 978 253 1319 
L 853 1319 
Q 853 1084 943 917 
Q 1034 750 1192 640 
Q 1350 531 1551 479 
Q 1753 428 1972 428 
Q 2288 428 2506 515 
Q 2725 603 2839 765 
Q 2953 928 2953 1150 
z
" transform="scale(0.015625)"/>
       </defs>
       <use xlink:href="#Roboto-Regular-47"/>
       <use xlink:href="#Roboto-Regular-53" transform="translate(68.115234 0)"/>
       <use xlink:href="#Roboto-Regular-43" transform="translate(127.490234 0)"/>
      </g>
     </g>
    </g>
    <g id="ytick_8">
     <g id="line2d_11">
      <g>
       <use xlink:href="#m7fb0d36d51" x="107.21" y="195.38" style="stroke: #000000; stroke-width: 1.5"/>
      </g>
     </g>
     <g id="text_12">
      <!-- TWIST1 -->
      <g transform="translate(44.075 201.38) scale(0.16 -0.16)">
       <defs>
        <path id="Roboto-Regular-54" d="M 2209 4550 
L 2209 0 
L 1616 0 
L 1616 4550 
L 2209 4550 
z
M 3672 4550 
L 3672 4056 
L 156 4056 
L 156 4550 
L 3672 4550 
z
" transform="scale(0.015625)"/>
        <path id="Roboto-Regular-57" d="M 1725 1375 
L 2628 4550 
L 3066 4550 
L 2813 3316 
L 1841 0 
L 1406 0 
L 1725 1375 
z
M 791 4550 
L 1509 1438 
L 1725 0 
L 1294 0 
L 191 4550 
L 791 4550 
z
M 4234 1441 
L 4938 4550 
L 5541 4550 
L 4441 0 
L 4009 0 
L 4234 1441 
z
M 3131 4550 
L 4009 1375 
L 4328 0 
L 3894 0 
L 2956 3316 
L 2700 4550 
L 3131 4550 
z
" transform="scale(0.015625)"/>
        <path id="Roboto-Regular-49" d="M 1175 4550 
L 1175 0 
L 572 0 
L 572 4550 
L 1175 4550 
z
" transform="scale(0.015625)"/>
       </defs>
       <use xlink:href="#Roboto-Regular-54"/>
       <use xlink:href="#Roboto-Regular-57" transform="translate(59.667969 0)"/>
       <use xlink:href="#Roboto-Regular-49" transform="translate(148.388672 0)"/>
       <use xlink:href="#Roboto-Regular-53" transform="translate(175.585938 0)"/>
       <use xlink:href="#Roboto-Regular-54" transform="translate(234.960938 0)"/>
       <use xlink:href="#Roboto-Regular-31" transform="translate(294.628906 0)"/>
      </g>
     </g>
    </g>
    <g id="ytick_9">
     <g id="line2d_12">
      <g>
       <use xlink:href="#m7fb0d36d51" x="107.21" y="217.259607" style="stroke: #000000; stroke-width: 1.5"/>
      </g>
     </g>
     <g id="text_13">
      <!-- TWIST2 -->
      <g transform="translate(44.075 223.259607) scale(0.16 -0.16)">
       <use xlink:href="#Roboto-Regular-54"/>
       <use xlink:href="#Roboto-Regular-57" transform="translate(59.667969 0)"/>
       <use xlink:href="#Roboto-Regular-49" transform="translate(148.388672 0)"/>
       <use xlink:href="#Roboto-Regular-53" transform="translate(175.585938 0)"/>
       <use xlink:href="#Roboto-Regular-54" transform="translate(234.960938 0)"/>
       <use xlink:href="#Roboto-Regular-32" transform="translate(294.628906 0)"/>
      </g>
     </g>
    </g>
    <g id="ytick_10">
     <g id="line2d_13">
      <g>
       <use xlink:href="#m7fb0d36d51" x="107.21" y="239.139214" style="stroke: #000000; stroke-width: 1.5"/>
      </g>
     </g>
     <g id="text_14">
      <!-- FOXC2 -->
      <g transform="translate(50.9175 245.139214) scale(0.16 -0.16)">
       <defs>
        <path id="Roboto-Regular-46" d="M 1131 4550 
L 1131 0 
L 528 0 
L 528 4550 
L 1131 4550 
z
M 3038 2503 
L 3038 2009 
L 1000 2009 
L 1000 2503 
L 3038 2503 
z
M 3347 4550 
L 3347 4056 
L 1000 4056 
L 1000 4550 
L 3347 4550 
z
" transform="scale(0.015625)"/>
        <path id="Roboto-Regular-4f" d="M 4031 2419 
L 4031 2131 
Q 4031 1619 3903 1212 
Q 3775 806 3534 522 
Q 3294 238 2958 87 
Q 2622 -63 2206 -63 
Q 1803 -63 1467 87 
Q 1131 238 886 522 
Q 641 806 506 1212 
Q 372 1619 372 2131 
L 372 2419 
Q 372 2931 505 3336 
Q 638 3741 881 4027 
Q 1125 4313 1461 4463 
Q 1797 4613 2200 4613 
Q 2616 4613 2952 4463 
Q 3288 4313 3530 4027 
Q 3772 3741 3901 3336 
Q 4031 2931 4031 2419 
z
M 3434 2131 
L 3434 2425 
Q 3434 2831 3351 3143 
Q 3269 3456 3109 3668 
Q 2950 3881 2720 3990 
Q 2491 4100 2200 4100 
Q 1919 4100 1692 3990 
Q 1466 3881 1305 3668 
Q 1144 3456 1056 3143 
Q 969 2831 969 2425 
L 969 2131 
Q 969 1722 1056 1408 
Q 1144 1094 1308 880 
Q 1472 666 1698 556 
Q 1925 447 2206 447 
Q 2500 447 2728 556 
Q 2956 666 3114 880 
Q 3272 1094 3353 1408 
Q 3434 1722 3434 2131 
z
" transform="scale(0.015625)"/>
        <path id="Roboto-Regular-58" d="M 919 4550 
L 2013 2806 
L 3106 4550 
L 3809 4550 
L 2372 2297 
L 3844 0 
L 3134 0 
L 2013 1778 
L 891 0 
L 181 0 
L 1653 2297 
L 216 4550 
L 919 4550 
z
" transform="scale(0.015625)"/>
       </defs>
       <use xlink:href="#Roboto-Regular-46"/>
       <use xlink:href="#Roboto-Regular-4f" transform="translate(55.273438 0)"/>
       <use xlink:href="#Roboto-Regular-58" transform="translate(124.072266 0)"/>
       <use xlink:href="#Roboto-Regular-43" transform="translate(186.767578 0)"/>
       <use xlink:href="#Roboto-Regular-32" transform="translate(251.855469 0)"/>
      </g>
     </g>
    </g>
    <g id="ytick_11">
     <g id="line2d_14">
      <g>
       <use xlink:href="#m7fb0d36d51" x="107.21" y="261.018821" style="stroke: #000000; stroke-width: 1.5"/>
      </g>
     </g>
     <g id="text_15">
      <!-- TGFbeta -->
      <g transform="translate(39.5125 267.018821) scale(0.16 -0.16)">
       <defs>
        <path id="Roboto-Regular-65" d="M 1844 -63 
Q 1491 -63 1205 57 
Q 919 178 714 397 
Q 509 616 400 916 
Q 291 1216 291 1572 
L 291 1703 
Q 291 2116 412 2439 
Q 534 2763 743 2988 
Q 953 3213 1218 3328 
Q 1484 3444 1769 3444 
Q 2131 3444 2395 3319 
Q 2659 3194 2828 2970 
Q 2997 2747 3078 2445 
Q 3159 2144 3159 1788 
L 3159 1528 
L 634 1528 
L 634 2000 
L 2581 2000 
L 2581 2044 
Q 2569 2269 2489 2481 
Q 2409 2694 2237 2831 
Q 2066 2969 1769 2969 
Q 1572 2969 1406 2886 
Q 1241 2803 1122 2640 
Q 1003 2478 937 2243 
Q 872 2009 872 1703 
L 872 1572 
Q 872 1331 939 1120 
Q 1006 909 1136 750 
Q 1266 591 1452 500 
Q 1638 409 1875 409 
Q 2181 409 2393 534 
Q 2606 659 2766 869 
L 3116 591 
Q 3006 425 2837 275 
Q 2669 125 2423 31 
Q 2178 -63 1844 -63 
z
" transform="scale(0.015625)"/>
        <path id="Roboto-Regular-74" d="M 1856 3381 
L 1856 2938 
L 28 2938 
L 28 3381 
L 1856 3381 
z
M 647 4203 
L 1225 4203 
L 1225 838 
Q 1225 666 1278 578 
Q 1331 491 1415 462 
Q 1500 434 1597 434 
Q 1669 434 1748 448 
Q 1828 463 1869 472 
L 1872 0 
Q 1803 -22 1692 -42 
Q 1581 -63 1425 -63 
Q 1213 -63 1034 21 
Q 856 106 751 304 
Q 647 503 647 841 
L 647 4203 
z
" transform="scale(0.015625)"/>
       </defs>
       <use xlink:href="#Roboto-Regular-54"/>
       <use xlink:href="#Roboto-Regular-47" transform="translate(59.667969 0)"/>
       <use xlink:href="#Roboto-Regular-46" transform="translate(127.783203 0)"/>
       <use xlink:href="#Roboto-Regular-62" transform="translate(183.056641 0)"/>
       <use xlink:href="#Roboto-Regular-65" transform="translate(239.208984 0)"/>
       <use xlink:href="#Roboto-Regular-74" transform="translate(292.236328 0)"/>
       <use xlink:href="#Roboto-Regular-61" transform="translate(324.951172 0)"/>
      </g>
     </g>
    </g>
    <g id="ytick_12">
     <g id="line2d_15">
      <g>
       <use xlink:href="#m7fb0d36d51" x="107.21" y="282.898428" style="stroke: #000000; stroke-width: 1.5"/>
      </g>
     </g>
     <g id="text_16">
      <!-- SNAI1 -->
      <g transform="translate(55.5125 288.898428) scale(0.16 -0.16)">
       <defs>
        <path id="Roboto-Regular-4e" d="M 4028 4550 
L 4028 0 
L 3422 0 
L 1131 3509 
L 1131 0 
L 528 0 
L 528 4550 
L 1131 4550 
L 3431 1031 
L 3431 4550 
L 4028 4550 
z
" transform="scale(0.015625)"/>
        <path id="Roboto-Regular-41" d="M 2213 4147 
L 706 0 
L 91 0 
L 1825 4550 
L 2222 4550 
L 2213 4147 
z
M 3475 0 
L 1966 4147 
L 1956 4550 
L 2353 4550 
L 4094 0 
L 3475 0 
z
M 3397 1684 
L 3397 1191 
L 841 1191 
L 841 1684 
L 3397 1684 
z
" transform="scale(0.015625)"/>
       </defs>
       <use xlink:href="#Roboto-Regular-53"/>
       <use xlink:href="#Roboto-Regular-4e" transform="translate(59.375 0)"/>
       <use xlink:href="#Roboto-Regular-41" transform="translate(130.712891 0)"/>
       <use xlink:href="#Roboto-Regular-49" transform="translate(195.947266 0)"/>
       <use xlink:href="#Roboto-Regular-31" transform="translate(223.144531 0)"/>
      </g>
     </g>
    </g>
    <g id="ytick_13">
     <g id="line2d_16">
      <g>
       <use xlink:href="#m7fb0d36d51" x="107.21" y="304.778034" style="stroke: #000000; stroke-width: 1.5"/>
      </g>
     </g>
     <g id="text_17">
      <!-- SNAI2 -->
      <g transform="translate(55.5125 310.778034) scale(0.16 -0.16)">
       <use xlink:href="#Roboto-Regular-53"/>
       <use xlink:href="#Roboto-Regular-4e" transform="translate(59.375 0)"/>
       <use xlink:href="#Roboto-Regular-41" transform="translate(130.712891 0)"/>
       <use xlink:href="#Roboto-Regular-49" transform="translate(195.947266 0)"/>
       <use xlink:href="#Roboto-Regular-32" transform="translate(223.144531 0)"/>
      </g>
     </g>
    </g>
    <g id="ytick_14">
     <g id="line2d_17">
      <g>
       <use xlink:href="#m7fb0d36d51" x="107.21" y="326.657641" style="stroke: #000000; stroke-width: 1.5"/>
      </g>
     </g>
     <g id="text_18">
      <!-- ZEB1 -->
      <g transform="translate(62.5675 332.657641) scale(0.16 -0.16)">
       <defs>
        <path id="Roboto-Regular-5a" d="M 3581 491 
L 3581 0 
L 500 0 
L 500 491 
L 3581 491 
z
M 3481 4113 
L 644 0 
L 272 0 
L 272 450 
L 3106 4550 
L 3481 4550 
L 3481 4113 
z
M 3225 4550 
L 3225 4056 
L 313 4056 
L 313 4550 
L 3225 4550 
z
" transform="scale(0.015625)"/>
        <path id="Roboto-Regular-45" d="M 3419 491 
L 3419 0 
L 1009 0 
L 1009 491 
L 3419 491 
z
M 1131 4550 
L 1131 0 
L 528 0 
L 528 4550 
L 1131 4550 
z
M 3100 2594 
L 3100 2103 
L 1009 2103 
L 1009 2594 
L 3100 2594 
z
M 3388 4550 
L 3388 4056 
L 1009 4056 
L 1009 4550 
L 3388 4550 
z
" transform="scale(0.015625)"/>
        <path id="Roboto-Regular-42" d="M 2150 2128 
L 997 2128 
L 991 2613 
L 2038 2613 
Q 2297 2613 2490 2700 
Q 2684 2788 2792 2952 
Q 2900 3116 2900 3344 
Q 2900 3594 2804 3751 
Q 2709 3909 2514 3982 
Q 2319 4056 2019 4056 
L 1131 4056 
L 1131 0 
L 528 0 
L 528 4550 
L 2019 4550 
Q 2369 4550 2644 4479 
Q 2919 4409 3111 4261 
Q 3303 4113 3403 3884 
Q 3503 3656 3503 3338 
Q 3503 3056 3359 2829 
Q 3216 2603 2961 2459 
Q 2706 2316 2366 2275 
L 2150 2128 
z
M 2122 0 
L 759 0 
L 1100 491 
L 2122 491 
Q 2409 491 2611 591 
Q 2813 691 2919 873 
Q 3025 1056 3025 1306 
Q 3025 1559 2934 1743 
Q 2844 1928 2650 2028 
Q 2456 2128 2150 2128 
L 1291 2128 
L 1297 2613 
L 2472 2613 
L 2600 2438 
Q 2928 2409 3156 2251 
Q 3384 2094 3504 1850 
Q 3625 1606 3625 1313 
Q 3625 888 3439 595 
Q 3253 303 2915 151 
Q 2578 0 2122 0 
z
" transform="scale(0.015625)"/>
       </defs>
       <use xlink:href="#Roboto-Regular-5a"/>
       <use xlink:href="#Roboto-Regular-45" transform="translate(59.912109 0)"/>
       <use xlink:href="#Roboto-Regular-42" transform="translate(116.748047 0)"/>
       <use xlink:href="#Roboto-Regular-31" transform="translate(179.052734 0)"/>
      </g>
     </g>
    </g>
    <g id="ytick_15">
     <g id="line2d_18">
      <g>
       <use xlink:href="#m7fb0d36d51" x="107.21" y="348.537248" style="stroke: #000000; stroke-width: 1.5"/>
      </g>
     </g>
     <g id="text_19">
      <!-- ZEB2 -->
      <g transform="translate(62.5675 354.537248) scale(0.16 -0.16)">
       <use xlink:href="#Roboto-Regular-5a"/>
       <use xlink:href="#Roboto-Regular-45" transform="translate(59.912109 0)"/>
       <use xlink:href="#Roboto-Regular-42" transform="translate(116.748047 0)"/>
       <use xlink:href="#Roboto-Regular-32" transform="translate(179.052734 0)"/>
      </g>
     </g>
    </g>
    <g id="text_20">
     <!-- Genes -->
     <g transform="translate(29.215 217.86) rotate(-90) scale(0.16 -0.16)">
      <use xlink:href="#Roboto-Regular-47"/>
      <use xlink:href="#Roboto-Regular-65" transform="translate(68.115234 0)"/>
      <use xlink:href="#Roboto-Regular-6e" transform="translate(121.142578 0)"/>
      <use xlink:href="#Roboto-Regular-65" transform="translate(176.367188 0)"/>
      <use xlink:href="#Roboto-Regular-73" transform="translate(229.394531 0)"/>
     </g>
    </g>
   </g>
   <g id="line2d_19">
    <path d="M 188.670998 373.48 
L 188.670998 17.28 
" clip-path="url(#p3eb93f2078)" style="fill: none; stroke: #000000; stroke-width: 1.5; stroke-linecap: square"/>
   </g>
   <g id="patch_18">
    <path d="M 107.21 373.48 
L 107.21 17.28 
" style="fill: none; stroke: #000000; stroke-width: 1.5; stroke-linejoin: miter; stroke-linecap: square"/>
   </g>
   <g id="patch_19">
    <path d="M 270.72 373.48 
L 270.72 17.28 
" style="fill: none; stroke: #000000; stroke-width: 1.5; stroke-linejoin: miter; stroke-linecap: square"/>
   </g>
   <g id="patch_20">
    <path d="M 107.21 373.48 
L 270.72 373.48 
" style="fill: none; stroke: #000000; stroke-width: 1.5; stroke-linejoin: miter; stroke-linecap: square"/>
   </g>
   <g id="patch_21">
    <path d="M 107.21 17.28 
L 270.72 17.28 
" style="fill: none; stroke: #000000; stroke-width: 1.5; stroke-linejoin: miter; stroke-linecap: square"/>
   </g>
  </g>
 </g>
 <defs>
  <clipPath id="p3eb93f2078">
   <rect x="107.21" y="17.28" width="163.51" height="356.2"/>
  </clipPath>
 </defs>
</svg>
